<svg width="26" height="26" viewBox="0 0 26 26" fill="none" xmlns="http://www.w3.org/2000/svg">
<path fill-rule="evenodd" clip-rule="evenodd" d="M1.625 13.0001C1.625 12.4616 2.06152 12.0251 2.6 12.0251L23.4 12.0251C23.9385 12.0251 24.375 12.4616 24.375 13.0001C24.375 13.5386 23.9385 13.9751 23.4 13.9751L2.6 13.9751C2.06152 13.9751 1.625 13.5386 1.625 13.0001Z" fill="#8D9299"/>
<path fill-rule="evenodd" clip-rule="evenodd" d="M1.625 6.5001C1.625 5.96162 2.06152 5.5251 2.6 5.5251L23.4 5.5251C23.9385 5.5251 24.375 5.96162 24.375 6.5001C24.375 7.03857 23.9385 7.4751 23.4 7.4751L2.6 7.4751C2.06152 7.4751 1.625 7.03858 1.625 6.5001Z" fill="#8D9299"/>
<path fill-rule="evenodd" clip-rule="evenodd" d="M1.625 19.5001C1.625 18.9616 2.06152 18.5251 2.6 18.5251L23.4 18.5251C23.9385 18.5251 24.375 18.9616 24.375 19.5001C24.375 20.0386 23.9385 20.4751 23.4 20.4751L2.6 20.4751C2.06152 20.4751 1.625 20.0386 1.625 19.5001Z" fill="#8D9299"/>
</svg>
