<svg width="26" height="26" viewBox="0 0 26 26" fill="none" xmlns="http://www.w3.org/2000/svg">
<path fill-rule="evenodd" clip-rule="evenodd" d="M2.2749 4.55002C2.2749 3.29358 3.29345 2.27502 4.5499 2.27502H21.4499C22.7064 2.27502 23.7249 3.29358 23.7249 4.55002V21.45C23.7249 22.7065 22.7064 23.725 21.4499 23.725H4.5499C3.29345 23.725 2.2749 22.7065 2.2749 21.45V4.55002ZM17.6679 11.0007C17.9997 10.5765 17.9247 9.96372 17.5005 9.632C17.0764 9.30028 16.4636 9.37522 16.1319 9.79939L12.2277 14.7916L9.78147 12.4002C9.39642 12.0237 8.77912 12.0307 8.4027 12.4158C8.02628 12.8008 8.03328 13.4181 8.41834 13.7946L11.6433 16.9472C11.8416 17.1411 12.113 17.2413 12.3897 17.2229C12.6664 17.2044 12.9221 17.0691 13.0929 16.8507L17.6679 11.0007Z" fill="#8D9299"/>
</svg>
