<svg width="20" height="20" viewBox="0 0 20 20" fill="none" xmlns="http://www.w3.org/2000/svg">
<path fill-rule="evenodd" clip-rule="evenodd" d="M13 17.25C13.4142 17.25 13.75 16.9142 13.75 16.5V13V12L13.75 7.5V6.5V3.5C13.75 3.08579 13.4142 2.75 13 2.75C12.5858 2.75 12.25 3.08579 12.25 3.5L12.25 4.76772C12.1683 4.75604 12.0849 4.75 12 4.75L8 4.75C7.0335 4.75 6.25 5.5335 6.25 6.5V7.5C6.25 8.4665 7.0335 9.25 8 9.25H12C12.0849 9.25 12.1683 9.24396 12.25 9.23228L12.25 10.2677C12.1683 10.256 12.0849 10.25 12 10.25H10.5C9.5335 10.25 8.75 11.0335 8.75 12V13C8.75 13.9665 9.5335 14.75 10.5 14.75H12C12.0849 14.75 12.1683 14.744 12.25 14.7323L12.25 16.5C12.25 16.9142 12.5858 17.25 13 17.25ZM12.25 13C12.25 13.1381 12.1381 13.25 12 13.25H10.5C10.3619 13.25 10.25 13.1381 10.25 13V12C10.25 11.8619 10.3619 11.75 10.5 11.75H12C12.1381 11.75 12.25 11.8619 12.25 12V13ZM12.25 7.5V6.5C12.25 6.36193 12.1381 6.25 12 6.25L8 6.25C7.86193 6.25 7.75 6.36193 7.75 6.5V7.5C7.75 7.63807 7.86193 7.75 8 7.75L12 7.75C12.1381 7.75 12.25 7.63807 12.25 7.5Z" fill="#8D9299"/>
</svg>
