<svg width="30" height="30" viewBox="0 0 30 30" fill="none" xmlns="http://www.w3.org/2000/svg">
<path fill-rule="evenodd" clip-rule="evenodd" d="M5.25 5.625C4.62868 5.625 4.125 6.12868 4.125 6.75V23.25C4.125 24.2855 4.96447 25.125 6 25.125H24C25.0355 25.125 25.875 24.2855 25.875 23.25V9.75C25.875 9.12868 25.3713 8.625 24.75 8.625H16.875C15.8127 8.625 14.8124 8.12484 14.175 7.275L13.275 6.075C13.0625 5.79172 12.7291 5.625 12.375 5.625H5.25ZM1.875 6.75C1.875 4.88604 3.38604 3.375 5.25 3.375H12.375C13.4373 3.375 14.4376 3.87516 15.075 4.725L15.975 5.925C16.1875 6.20828 16.5209 6.375 16.875 6.375H24.75C26.614 6.375 28.125 7.88604 28.125 9.75V23.25C28.125 25.5282 26.2782 27.375 24 27.375H6C3.72183 27.375 1.875 25.5282 1.875 23.25V6.75Z" fill="#8D9299"/>
<path fill-rule="evenodd" clip-rule="evenodd" d="M15 11.625C15.6213 11.625 16.125 12.1287 16.125 12.75V17.6926L17.9898 15.9832C18.4478 15.5634 19.1595 15.5943 19.5793 16.0523C19.9991 16.5103 19.9682 17.222 19.5102 17.6418L15.7602 21.0793C15.3301 21.4736 14.6699 21.4736 14.2398 21.0793L10.4898 17.6418C10.0318 17.222 10.0009 16.5103 10.4207 16.0523C10.8405 15.5943 11.5522 15.5634 12.0102 15.9832L13.875 17.6926L13.875 12.75C13.875 12.1287 14.3787 11.625 15 11.625Z" fill="#8D9299"/>
</svg>
