<svg width="32" height="32" viewBox="0 0 32 32" fill="none" xmlns="http://www.w3.org/2000/svg">
<rect width="32" height="32" rx="10" />
<path fill-rule="evenodd" clip-rule="evenodd" d="M6.5 8.4C6.5 7.35066 7.35066 6.5 8.4 6.5H23.6C24.6493 6.5 25.5 7.35066 25.5 8.4V23.6C25.5 24.6493 24.6493 25.5 23.6 25.5H8.4C7.35066 25.5 6.5 24.6493 6.5 23.6V8.4ZM8.4 8.12857C8.25009 8.12857 8.12857 8.25009 8.12857 8.4V23.6C8.12857 23.7499 8.25009 23.8714 8.4 23.8714H23.6C23.7499 23.8714 23.8714 23.7499 23.8714 23.6V8.4C23.8714 8.25009 23.7499 8.12857 23.6 8.12857H8.4Z" fill="#8D9299"/>
<path fill-rule="evenodd" clip-rule="evenodd" d="M6.5 12.7429C6.5 12.2931 6.86457 11.9286 7.31429 11.9286H24.6857C25.1354 11.9286 25.5 12.2931 25.5 12.7429C25.5 13.1926 25.1354 13.5571 24.6857 13.5571H7.31429C6.86457 13.5571 6.5 13.1926 6.5 12.7429Z" fill="#8D9299"/>
<path fill-rule="evenodd" clip-rule="evenodd" d="M20.0714 10.0286C20.0714 9.57885 20.436 9.21429 20.8857 9.21429H21.9714C22.4211 9.21429 22.7857 9.57885 22.7857 10.0286C22.7857 10.4783 22.4211 10.8429 21.9714 10.8429H20.8857C20.436 10.8429 20.0714 10.4783 20.0714 10.0286Z" fill="#8D9299"/>
</svg>
