<svg width="16" height="16" viewBox="0 0 16 16" fill="none" xmlns="http://www.w3.org/2000/svg">
<path fill-rule="evenodd" clip-rule="evenodd" d="M9.73661 1.69595C10.9979 0.434684 13.0428 0.434684 14.3041 1.69595C15.5653 2.95721 15.5653 5.00212 14.3041 6.26339L5.53711 15.0303C5.39646 15.171 5.20569 15.25 5.00678 15.25H1.5C1.08579 15.25 0.75 14.9142 0.75 14.5V10.9932C0.75 10.7943 0.829018 10.6035 0.96967 10.4629L9.73661 1.69595ZM13.2434 2.75661C12.5679 2.08113 11.4728 2.08113 10.7973 2.75661L9.79339 3.76049L12.2395 6.20661L13.2434 5.20272C13.9189 4.52725 13.9189 3.43208 13.2434 2.75661ZM11.1788 7.26727L8.73273 4.82115L2.25 11.3039V13.75H4.69612L11.1788 7.26727Z" fill="#8D9299"/>
</svg>
