<svg width="26" height="26" viewBox="0 0 26 26" fill="none" xmlns="http://www.w3.org/2000/svg">
<path fill-rule="evenodd" clip-rule="evenodd" d="M4.51067 22.1395C4.32782 21.9566 4.2251 21.7086 4.2251 21.45L4.2251 18.8501C4.2251 18.3116 4.66162 17.8751 5.2001 17.8751C5.73858 17.8751 6.1751 18.3116 6.1751 18.8501L6.1751 20.475L19.8251 20.475L19.8251 18.8501C19.8251 18.3116 20.2616 17.8751 20.8001 17.8751C21.3386 17.8751 21.7751 18.3116 21.7751 18.8501L21.7751 21.45C21.7751 21.9885 21.3386 22.425 20.8001 22.425L5.2001 22.425C4.94151 22.425 4.69352 22.3223 4.51067 22.1395Z" fill="#8D9299"/>
<path fill-rule="evenodd" clip-rule="evenodd" d="M12.9998 17.875C12.4613 17.875 12.0248 17.4385 12.0248 16.9L12.0248 7.60604L8.49976 11.2412C8.1249 11.6278 7.50763 11.6373 7.12106 11.2625C6.73449 10.8876 6.72499 10.2703 7.09985 9.88376L12.2999 4.52126C12.4835 4.33188 12.736 4.225 12.9998 4.225C13.2636 4.225 13.5161 4.33188 13.6998 4.52126L18.8998 9.88376C19.2746 10.2703 19.2651 10.8876 18.8785 11.2625C18.492 11.6373 17.8747 11.6278 17.4999 11.2412L13.9748 7.60604L13.9748 16.9C13.9748 17.4385 13.5383 17.875 12.9998 17.875Z" fill="#8D9299"/>
</svg>
