<svg width="32" height="32" viewBox="0 0 32 32" fill="none" xmlns="http://www.w3.org/2000/svg">
<rect width="32" height="32" rx="10" />
<path fill-rule="evenodd" clip-rule="evenodd" d="M23.2989 24.3327C23.7069 24.0971 23.8467 23.5754 23.6111 23.1674L21.4244 19.3799L23.3333 19.9399C23.7854 20.0726 24.2594 19.8136 24.392 19.3616C24.5246 18.9095 24.2657 18.4355 23.8136 18.3029L19.8607 17.1431C19.6369 17.0775 19.396 17.1063 19.1941 17.2229C18.9921 17.3395 18.8467 17.5337 18.7916 17.7604L17.8196 21.7635C17.7084 22.2214 17.9894 22.6826 18.4472 22.7938C18.905 22.9049 19.3663 22.6239 19.4774 22.1661L19.9469 20.2329L22.1336 24.0205C22.3692 24.4284 22.8909 24.5682 23.2989 24.3327Z" fill="#8D9299"/>
<path fill-rule="evenodd" clip-rule="evenodd" d="M10.9025 11.7061C8.86101 11.7061 7.20606 13.361 7.20606 15.4025C7.20606 17.444 8.86101 19.099 10.9025 19.099H15.1676C15.6388 19.099 16.0207 19.4809 16.0207 19.952C16.0207 20.4231 15.6388 20.805 15.1676 20.805H10.9025C7.91879 20.805 5.5 18.3862 5.5 15.4025C5.5 12.4188 7.91879 10 10.9025 10H20.0015C22.9852 10 25.404 12.4188 25.404 15.4025V15.6003C25.404 16.0714 25.0221 16.4533 24.551 16.4533C24.0798 16.4533 23.6979 16.0714 23.6979 15.6003V15.4025C23.6979 13.361 22.043 11.7061 20.0015 11.7061H10.9025Z" fill="#8D9299"/>
</svg>
