<svg width="26" height="26" viewBox="0 0 26 26" fill="none" xmlns="http://www.w3.org/2000/svg">
<path fill-rule="evenodd" clip-rule="evenodd" d="M13 3.575C7.79472 3.575 3.575 7.79472 3.575 13C3.575 18.2053 7.79472 22.425 13 22.425C18.2053 22.425 22.425 18.2053 22.425 13C22.425 7.79472 18.2053 3.575 13 3.575ZM1.625 13C1.625 6.71776 6.71776 1.625 13 1.625C19.2822 1.625 24.375 6.71776 24.375 13C24.375 19.2822 19.2822 24.375 13 24.375C6.71776 24.375 1.625 19.2822 1.625 13Z" fill="#8D9299"/>
<path fill-rule="evenodd" clip-rule="evenodd" d="M17.5006 9.63194C17.9248 9.96367 17.9997 10.5764 17.668 11.0006L13.093 16.8506C12.9222 17.069 12.6665 17.2044 12.3898 17.2228C12.1131 17.2412 11.8417 17.141 11.6434 16.9472L8.41843 13.7945C8.03338 13.4181 8.02638 12.8008 8.4028 12.4157C8.77922 12.0307 9.39651 12.0237 9.78157 12.4001L12.2278 14.7915L16.132 9.79933C16.4637 9.37517 17.0765 9.30022 17.5006 9.63194Z" fill="#8D9299"/>
</svg>
