<svg width="26" height="26" viewBox="0 0 26 26" fill="none" xmlns="http://www.w3.org/2000/svg">
<path fill-rule="evenodd" clip-rule="evenodd" d="M1.625 7.8C1.625 4.38964 4.38964 1.625 7.8 1.625H18.2C21.6104 1.625 24.375 4.38964 24.375 7.8V18.2C24.375 21.6104 21.6104 24.375 18.2 24.375H7.8C4.38964 24.375 1.625 21.6104 1.625 18.2V7.8ZM7.8 3.575C5.4666 3.575 3.575 5.4666 3.575 7.8V18.2C3.575 20.5334 5.4666 22.425 7.8 22.425H18.2C20.5334 22.425 22.425 20.5334 22.425 18.2V7.8C22.425 5.4666 20.5334 3.575 18.2 3.575H7.8Z" fill="#8D9299"/>
<path fill-rule="evenodd" clip-rule="evenodd" d="M8.7749 7.47502C8.05693 7.47502 7.4749 8.05705 7.4749 8.77502C7.4749 9.49299 8.05693 10.075 8.7749 10.075C9.49287 10.075 10.0749 9.49299 10.0749 8.77502C10.0749 8.05705 9.49287 7.47502 8.7749 7.47502ZM5.5249 8.77502C5.5249 6.9801 6.97998 5.52502 8.7749 5.52502C10.5698 5.52502 12.0249 6.9801 12.0249 8.77502C12.0249 10.5699 10.5698 12.025 8.7749 12.025C6.97998 12.025 5.5249 10.5699 5.5249 8.77502Z" fill="#8D9299"/>
<path fill-rule="evenodd" clip-rule="evenodd" d="M19.5216 13.6126C18.8606 12.7865 17.5991 12.8021 16.9589 13.6445L14.2371 17.2257C13.1188 18.6972 11.0633 19.0737 9.49611 18.0941L8.06227 17.198C7.4206 16.797 6.58703 16.8919 6.05197 17.4269L3.2895 20.1894L1.91064 18.8106L4.67311 16.0481C5.85025 14.871 7.68409 14.6621 9.09577 15.5444L10.5296 16.4406C11.242 16.8858 12.1763 16.7147 12.6846 16.0458L15.4064 12.4646C16.8147 10.6114 19.5902 10.5769 21.0443 12.3945L24.1614 16.2909L22.6387 17.5091L19.5216 13.6126Z" fill="#8D9299"/>
</svg>
