<svg width="26" height="26" viewBox="0 0 26 26" fill="none" xmlns="http://www.w3.org/2000/svg">
<path d="M7.18933 5.81047C6.80857 5.42971 6.19123 5.42971 5.81047 5.81047C5.42971 6.19123 5.42971 6.80857 5.81047 7.18933L11.621 12.9999L5.81047 18.8105C5.42971 19.1912 5.42971 19.8086 5.81047 20.1893C6.19123 20.5701 6.80857 20.5701 7.18933 20.1893L12.9999 14.3788L18.6798 20.0587C19.0606 20.4394 19.6779 20.4394 20.0587 20.0587C20.4394 19.6779 20.4394 19.0606 20.0587 18.6798L14.3788 12.9999L20.0587 7.31999C20.4394 6.93923 20.4394 6.32189 20.0587 5.94113C19.6779 5.56037 19.0606 5.56037 18.6798 5.94113L12.9999 11.621L7.18933 5.81047Z" fill="#8D9299"/>
</svg>
