<svg width="20" height="20" viewBox="0 0 20 20" fill="none" xmlns="http://www.w3.org/2000/svg">
<path fill-rule="evenodd" clip-rule="evenodd" d="M11.7366 3.69595C12.9979 2.43468 15.0428 2.43468 16.3041 3.69595C17.5653 4.95721 17.5653 7.00212 16.3041 8.26339L7.53711 17.0303C7.39646 17.171 7.20569 17.25 7.00678 17.25H3.5C3.08579 17.25 2.75 16.9142 2.75 16.5V12.9932C2.75 12.7943 2.82902 12.6035 2.96967 12.4629L11.7366 3.69595ZM15.2434 4.75661C14.5679 4.08113 13.4728 4.08113 12.7973 4.75661L11.7934 5.76049L14.2395 8.20661L15.2434 7.20272C15.9189 6.52725 15.9189 5.43208 15.2434 4.75661ZM13.1788 9.26727L10.7327 6.82115L4.25 13.3039V15.75H6.69612L13.1788 9.26727Z" fill="#8D9299"/>
</svg>
