<svg width="32" height="32" viewBox="0 0 32 32" fill="none" xmlns="http://www.w3.org/2000/svg">
<rect width="32" height="32" rx="10" />
<path fill-rule="evenodd" clip-rule="evenodd" d="M10.75 9.43756C9.44523 9.43756 8.3875 10.4953 8.3875 11.8001V21.2501C8.3875 22.5548 9.44523 23.6126 10.75 23.6126H20.2C21.5048 23.6126 22.5625 22.5548 22.5625 21.2501V16.0001C22.5625 15.5651 22.9151 15.2126 23.35 15.2126C23.7849 15.2126 24.1375 15.5651 24.1375 16.0001V21.2501C24.1375 23.4247 22.3746 25.1876 20.2 25.1876H10.75C8.57538 25.1876 6.8125 23.4247 6.8125 21.2501V11.8001C6.8125 9.62544 8.57538 7.86256 10.75 7.86256H16C16.4349 7.86256 16.7875 8.21514 16.7875 8.65006C16.7875 9.08499 16.4349 9.43756 16 9.43756H10.75Z" fill="#8D9299"/>
<path fill-rule="evenodd" clip-rule="evenodd" d="M20.424 7.62982C21.5136 6.54014 23.2804 6.54014 24.37 7.62982C25.4597 8.71951 25.4597 10.4862 24.37 11.5759L17.289 18.6569C17.1414 18.8046 16.9411 18.8876 16.7322 18.8876H13.8998C13.4649 18.8876 13.1123 18.535 13.1123 18.1001V15.2677C13.1123 15.0588 13.1953 14.8585 13.343 14.7108L20.424 7.62982ZM23.2563 8.74352C22.7817 8.26891 22.0123 8.26891 21.5376 8.74352L20.8553 9.42584L22.574 11.1445L23.2563 10.4622C23.731 9.98761 23.731 9.21812 23.2563 8.74352ZM21.4603 12.2582L19.7416 10.5395L14.6873 15.5939V17.3126H16.406L21.4603 12.2582Z" fill="#8D9299"/>
</svg>
