<svg width="26" height="26" viewBox="0 0 26 26" fill="none" xmlns="http://www.w3.org/2000/svg">
<path fill-rule="evenodd" clip-rule="evenodd" d="M6.5 4.87505C4.88457 4.87505 3.575 6.18462 3.575 7.80005V19.5C3.575 21.1155 4.88457 22.4251 6.5 22.4251H18.2C19.8154 22.4251 21.125 21.1155 21.125 19.5V13C21.125 12.4616 21.5615 12.025 22.1 12.025C22.6385 12.025 23.075 12.4616 23.075 13V19.5C23.075 22.1924 20.8924 24.375 18.2 24.375H6.5C3.80761 24.375 1.625 22.1924 1.625 19.5V7.80005C1.625 5.10766 3.80761 2.92505 6.5 2.92505H13C13.5385 2.92505 13.975 3.36157 13.975 3.90005C13.975 4.43853 13.5385 4.87505 13 4.87505H6.5Z" fill="#8D9299"/>
<path fill-rule="evenodd" clip-rule="evenodd" d="M18.4773 2.63685C19.8265 1.28772 22.0138 1.28772 23.363 2.63685C24.7121 3.98598 24.7121 6.17335 23.363 7.52248L14.596 16.2894C14.4132 16.4723 14.1652 16.575 13.9066 16.575H10.3998C9.86133 16.575 9.4248 16.1385 9.4248 15.6V12.0932C9.4248 11.8346 9.52753 11.5866 9.71038 11.4038L18.4773 2.63685ZM21.9841 4.01571C21.3965 3.4281 20.4438 3.4281 19.8562 4.01571L19.0114 4.86049L21.1393 6.98841L21.9841 6.14363C22.5717 5.55602 22.5717 4.60332 21.9841 4.01571ZM19.7605 8.36727L17.6325 6.23935L11.3748 12.4971V14.625H13.5027L19.7605 8.36727Z" fill="#8D9299"/>
</svg>
