<svg width="20" height="20" viewBox="0 0 20 20" fill="none" xmlns="http://www.w3.org/2000/svg">
<path fill-rule="evenodd" clip-rule="evenodd" d="M3.5 7.75C3.08579 7.75 2.75 8.08579 2.75 8.5C2.75 8.91421 3.08579 9.25 3.5 9.25L6.26772 9.25C6.25604 9.33165 6.25 9.41512 6.25 9.5V10.5C6.25 11.4665 7.0335 12.25 8 12.25H12C12.9665 12.25 13.75 11.4665 13.75 10.5V9.5C13.75 9.41512 13.744 9.33165 13.7323 9.25L16.5 9.25C16.9142 9.25 17.25 8.91421 17.25 8.5C17.25 8.08579 16.9142 7.75 16.5 7.75H12H8H3.5ZM12 9.25H8C7.86193 9.25 7.75 9.36193 7.75 9.5V10.5C7.75 10.6381 7.86193 10.75 8 10.75H12C12.1381 10.75 12.25 10.6381 12.25 10.5V9.5C12.25 9.36193 12.1381 9.25 12 9.25Z" fill="#8D9299"/>
</svg>
