<svg width="26" height="26" viewBox="0 0 26 26" fill="none" xmlns="http://www.w3.org/2000/svg">
<path fill-rule="evenodd" clip-rule="evenodd" d="M1.625 8.45C1.625 5.75761 3.80761 3.575 6.5 3.575H19.5C22.1924 3.575 24.375 5.75761 24.375 8.45V19.5C24.375 22.1924 22.1924 24.375 19.5 24.375H6.5C3.80761 24.375 1.625 22.1924 1.625 19.5V8.45ZM6.5 5.525C4.88457 5.525 3.575 6.83457 3.575 8.45V19.5C3.575 21.1154 4.88457 22.425 6.5 22.425H19.5C21.1154 22.425 22.425 21.1154 22.425 19.5V8.45C22.425 6.83457 21.1154 5.525 19.5 5.525H6.5Z" fill="#8D9299"/>
<path fill-rule="evenodd" clip-rule="evenodd" d="M9.1 1.625C9.63848 1.625 10.075 2.06152 10.075 2.6V6.5C10.075 7.03848 9.63848 7.475 9.1 7.475C8.56152 7.475 8.125 7.03848 8.125 6.5V2.6C8.125 2.06152 8.56152 1.625 9.1 1.625Z" fill="#8D9299"/>
<path fill-rule="evenodd" clip-rule="evenodd" d="M16.9 1.625C17.4385 1.625 17.875 2.06152 17.875 2.6V6.5C17.875 7.03848 17.4385 7.475 16.9 7.475C16.3615 7.475 15.925 7.03848 15.925 6.5V2.6C15.925 2.06152 16.3615 1.625 16.9 1.625Z" fill="#8D9299"/>
<path fill-rule="evenodd" clip-rule="evenodd" d="M1.625 16.9C1.625 16.3615 2.06152 15.925 2.6 15.925H23.4C23.9385 15.925 24.375 16.3615 24.375 16.9C24.375 17.4385 23.9385 17.875 23.4 17.875H2.6C2.06152 17.875 1.625 17.4385 1.625 16.9Z" fill="#8D9299"/>
<path d="M10.4 11.7C10.4 12.418 9.81797 13 9.1 13C8.38203 13 7.8 12.418 7.8 11.7C7.8 10.982 8.38203 10.4 9.1 10.4C9.81797 10.4 10.4 10.982 10.4 11.7Z" fill="#8D9299"/>
<path d="M18.2 11.7C18.2 12.418 17.618 13 16.9 13C16.182 13 15.6 12.418 15.6 11.7C15.6 10.982 16.182 10.4 16.9 10.4C17.618 10.4 18.2 10.982 18.2 11.7Z" fill="#8D9299"/>
<path d="M14.3 11.7C14.3 12.418 13.718 13 13 13C12.282 13 11.7 12.418 11.7 11.7C11.7 10.982 12.282 10.4 13 10.4C13.718 10.4 14.3 10.982 14.3 11.7Z" fill="#8D9299"/>
</svg>
