<svg width="26" height="26" viewBox="0 0 26 26" fill="none" xmlns="http://www.w3.org/2000/svg">
<path fill-rule="evenodd" clip-rule="evenodd" d="M13.0002 3.575C10.6668 3.575 8.7752 5.4666 8.7752 7.8C8.7752 10.1334 10.6668 12.025 13.0002 12.025C15.3336 12.025 17.2252 10.1334 17.2252 7.8C17.2252 5.4666 15.3336 3.575 13.0002 3.575ZM6.8252 7.8C6.8252 4.38964 9.58984 1.625 13.0002 1.625C16.4106 1.625 19.1752 4.38964 19.1752 7.8C19.1752 11.2104 16.4106 13.975 13.0002 13.975C9.58984 13.975 6.8252 11.2104 6.8252 7.8Z" fill="#8D9299"/>
<path fill-rule="evenodd" clip-rule="evenodd" d="M12.9999 13.9749C8.1536 13.9749 4.2249 17.9036 4.2249 22.7499V23.3999C4.2249 23.9384 3.78838 24.3749 3.2499 24.3749C2.71142 24.3749 2.2749 23.9384 2.2749 23.3999V22.7499C2.2749 16.8266 7.07665 12.0249 12.9999 12.0249C18.9232 12.0249 23.7249 16.8266 23.7249 22.7499V23.3999C23.7249 23.9384 23.2884 24.3749 22.7499 24.3749C22.2114 24.3749 21.7749 23.9384 21.7749 23.3999V22.7499C21.7749 17.9036 17.8462 13.9749 12.9999 13.9749Z" fill="#8D9299"/>
</svg>
