<svg width="32" height="32" viewBox="0 0 32 32" fill="none" xmlns="http://www.w3.org/2000/svg">
<path fill-rule="evenodd" clip-rule="evenodd" d="M16 4.4C9.5935 4.4 4.4 9.5935 4.4 16C4.4 22.4065 9.5935 27.6 16 27.6C22.4065 27.6 27.6 22.4065 27.6 16C27.6 9.5935 22.4065 4.4 16 4.4ZM2 16C2 8.26801 8.26801 2 16 2C23.732 2 30 8.26801 30 16C30 23.732 23.732 30 16 30C8.26801 30 2 23.732 2 16Z" fill="#8D9299"/>
<path fill-rule="evenodd" clip-rule="evenodd" d="M17.5228 12.1318C16.8704 11.4794 15.4352 11.4138 14.6701 12.6891C14.3291 13.2574 13.592 13.4416 13.0237 13.1007C12.4554 12.7597 12.2711 12.0226 12.6121 11.4543C14.2121 8.78765 17.5071 8.72203 19.2199 10.4348C20.8927 12.1076 20.7041 14.7262 19.1785 16.1131C18.5261 16.7062 17.7971 16.9837 17.2062 17.1124V17.5903C17.2062 18.253 16.669 18.7903 16.0062 18.7903C15.3435 18.7903 14.8062 18.253 14.8062 17.5903V16.4585C14.8062 15.4919 15.6035 14.871 16.3628 14.8155C16.7054 14.7905 17.1857 14.6812 17.5641 14.3372C18.088 13.861 18.215 12.8241 17.5228 12.1318Z" fill="#8D9299"/>
<path fill-rule="evenodd" clip-rule="evenodd" d="M16.0062 19.5249C16.6689 19.5249 17.2062 20.0622 17.2062 20.7249V20.8037C17.2062 21.4665 16.6689 22.0037 16.0062 22.0037C15.3434 22.0037 14.8062 21.4665 14.8062 20.8037V20.7249C14.8062 20.0622 15.3434 19.5249 16.0062 19.5249Z" fill="#8D9299"/>
</svg>
