<svg width="16" height="16" viewBox="0 0 16 16" fill="none" xmlns="http://www.w3.org/2000/svg">
<g clip-path="url(#clip0_55_1633)">
<rect width="16" height="16" fill="white"/>
<path d="M0.398959 14.399C0.0670136 14.7309 0.0670136 15.2691 0.398959 15.601C0.730905 15.933 1.2691 15.933 1.60104 15.601L0.398959 14.399ZM15.85 1C15.85 0.530558 15.4694 0.15 15 0.15H7.35C6.88056 0.15 6.5 0.530558 6.5 1C6.5 1.46944 6.88056 1.85 7.35 1.85H14.15V8.65C14.15 9.11944 14.5306 9.5 15 9.5C15.4694 9.5 15.85 9.11944 15.85 8.65V1ZM1.60104 15.601L15.601 1.60104L14.399 0.398959L0.398959 14.399L1.60104 15.601Z" fill="#8D9299"/>
</g>
<defs>
<clipPath id="clip0_55_1633">
<rect width="16" height="16" fill="white"/>
</clipPath>
</defs>
</svg>
