<svg width="32" height="32" viewBox="0 0 32 32" fill="none" xmlns="http://www.w3.org/2000/svg">
<rect width="32" height="32" rx="10"/>
<path fill-rule="evenodd" clip-rule="evenodd" d="M10.8182 8.22727C9.38726 8.22727 8.22727 9.38726 8.22727 10.8182V21.1818C8.22727 22.6127 9.38726 23.7727 10.8182 23.7727H17.1778C17.9822 23.7727 18.7409 23.3991 19.2314 22.7615L23.2354 17.5563C23.5838 17.1033 23.7727 16.548 23.7727 15.9765V10.8182C23.7727 9.38726 22.6127 8.22727 21.1818 8.22727H10.8182ZM6.5 10.8182C6.5 8.43332 8.43332 6.5 10.8182 6.5H21.1818C23.5667 6.5 25.5 8.43332 25.5 10.8182V15.9765C25.5 16.9289 25.1852 17.8545 24.6045 18.6094L20.6005 23.8147C19.783 24.8773 18.5184 25.5 17.1778 25.5H10.8182C8.43332 25.5 6.5 23.5667 6.5 21.1818V10.8182Z" fill="#8D9299"/>
<path fill-rule="evenodd" clip-rule="evenodd" d="M19.1665 18.303C19.0075 18.303 18.8786 18.4319 18.8786 18.5909V24.3485C18.8786 24.8254 18.492 25.2121 18.015 25.2121C17.538 25.2121 17.1514 24.8254 17.1514 24.3485V18.5909C17.1514 17.478 18.0536 16.5757 19.1665 16.5757H23.7726C24.2496 16.5757 24.6362 16.9624 24.6362 17.4394C24.6362 17.9164 24.2496 18.303 23.7726 18.303H19.1665Z" fill="#8D9299"/>
</svg>
