<svg width="22" height="22" viewBox="0 0 22 22" fill="none" xmlns="http://www.w3.org/2000/svg">
<path fill-rule="evenodd" clip-rule="evenodd" d="M17.2763 7.46593L14.3369 6.87809C13.9036 6.79145 13.4821 7.07243 13.3955 7.50568C13.3089 7.93893 13.5898 8.36039 14.0231 8.44703L18.677 9.37772C18.8964 9.42159 19.1242 9.37158 19.305 9.23982C19.4858 9.10805 19.6032 8.90658 19.6287 8.68429L20.1913 3.77234C20.2416 3.33338 19.9265 2.93678 19.4875 2.8865C19.0486 2.83622 18.652 3.15131 18.6017 3.59026L18.3142 6.10039C16.0548 2.72364 11.6712 1.26276 7.74457 2.82708C3.22957 4.62578 1.02787 9.74317 2.82742 14.2572C4.62692 18.7711 9.74581 20.9718 14.2607 19.1732C16.4879 18.2859 18.1531 16.5896 19.0513 14.5586C19.23 14.1546 19.0474 13.6821 18.6433 13.5034C18.2392 13.3247 17.7668 13.5074 17.5881 13.9115C16.8524 15.5749 15.4914 16.9606 13.6685 17.6868C9.97415 19.1586 5.78588 17.3576 4.31367 13.6647C2.84152 9.97192 4.64248 5.78519 8.33672 4.31347C11.7281 2.9624 15.5357 4.36928 17.2763 7.46593Z" fill="#8D9299"/>
</svg>
