<svg width="14" height="14" viewBox="0 0 14 14" fill="none" xmlns="http://www.w3.org/2000/svg">
<path fill-rule="evenodd" clip-rule="evenodd" d="M7 1.2C3.79675 1.2 1.2 3.79675 1.2 7C1.2 10.2033 3.79675 12.8 7 12.8C10.2033 12.8 12.8 10.2033 12.8 7C12.8 3.79675 10.2033 1.2 7 1.2ZM0 7C0 3.13401 3.13401 0 7 0C10.866 0 14 3.13401 14 7C14 10.866 10.866 14 7 14C3.13401 14 0 10.866 0 7Z" fill="#3075FF"/>
<path fill-rule="evenodd" clip-rule="evenodd" d="M9.76962 4.92744C10.0306 5.13158 10.0768 5.50867 9.87263 5.7697L7.05725 9.3697C6.95213 9.50411 6.79475 9.58741 6.6245 9.59875C6.45424 9.61009 6.28721 9.5484 6.16519 9.42912L4.18057 7.48902C3.94362 7.25737 3.93931 6.8775 4.17095 6.64054C4.40259 6.40359 4.78247 6.39928 5.01943 6.63092L6.52483 8.10256L8.92737 5.03045C9.13151 4.76943 9.5086 4.72331 9.76962 4.92744Z" fill="#3075FF"/>
</svg>
