<svg width="22" height="22" viewBox="0 0 22 22" fill="none" xmlns="http://www.w3.org/2000/svg">
<path d="M1.8125 3.65C1.8125 2.63518 2.63518 1.8125 3.65 1.8125H8.375C9.38982 1.8125 10.2125 2.63518 10.2125 3.65V8.375C10.2125 9.38982 9.38982 10.2125 8.375 10.2125H3.65C2.63518 10.2125 1.8125 9.38982 1.8125 8.375V3.65Z" fill="#8D9299"/>
<path fill-rule="evenodd" clip-rule="evenodd" d="M3.65 11.7875C2.63518 11.7875 1.8125 12.6102 1.8125 13.625V18.35C1.8125 19.3648 2.63518 20.1875 3.65 20.1875H8.375C9.38982 20.1875 10.2125 19.3648 10.2125 18.35V13.625C10.2125 12.6102 9.38982 11.7875 8.375 11.7875H3.65ZM3.3875 13.625C3.3875 13.48 3.50503 13.3625 3.65 13.3625H8.375C8.51997 13.3625 8.6375 13.48 8.6375 13.625V18.35C8.6375 18.495 8.51997 18.6125 8.375 18.6125H3.65C3.50503 18.6125 3.3875 18.495 3.3875 18.35V13.625Z" fill="#8D9299"/>
<path fill-rule="evenodd" clip-rule="evenodd" d="M11.7875 3.65C11.7875 2.63518 12.6102 1.8125 13.625 1.8125H18.35C19.3648 1.8125 20.1875 2.63518 20.1875 3.65V8.375C20.1875 9.38982 19.3648 10.2125 18.35 10.2125H13.625C12.6102 10.2125 11.7875 9.38982 11.7875 8.375V3.65ZM13.625 3.3875C13.48 3.3875 13.3625 3.50503 13.3625 3.65V8.375C13.3625 8.51997 13.48 8.6375 13.625 8.6375H18.35C18.495 8.6375 18.6125 8.51997 18.6125 8.375V3.65C18.6125 3.50503 18.495 3.3875 18.35 3.3875H13.625Z" fill="#8D9299"/>
<path fill-rule="evenodd" clip-rule="evenodd" d="M13.625 11.7875C12.6102 11.7875 11.7875 12.6102 11.7875 13.625V18.35C11.7875 19.3648 12.6102 20.1875 13.625 20.1875H18.35C19.3648 20.1875 20.1875 19.3648 20.1875 18.35V13.625C20.1875 12.6102 19.3648 11.7875 18.35 11.7875H13.625ZM13.3625 13.625C13.3625 13.48 13.48 13.3625 13.625 13.3625H18.35C18.495 13.3625 18.6125 13.48 18.6125 13.625V18.35C18.6125 18.495 18.495 18.6125 18.35 18.6125H13.625C13.48 18.6125 13.3625 18.495 13.3625 18.35V13.625Z" fill="#8D9299"/>
</svg>
