<svg width="35" height="20" viewBox="0 0 35 20" fill="none" xmlns="http://www.w3.org/2000/svg">
<g clip-path="url(#clip0_60_2544)">
<rect width="35" height="19" transform="translate(0 0.5)" fill="white"/>
<path d="M17.5 14.0641C17.5 11.8337 19.3081 10.0256 21.5385 10.0256H29.6154C31.8458 10.0256 33.6538 11.8337 33.6538 14.0641C33.6538 16.2945 31.8458 18.1026 29.6154 18.1026H21.5385C19.3081 18.1026 17.5 16.2945 17.5 14.0641Z" fill="#3075FF"/>
<path fill-rule="evenodd" clip-rule="evenodd" d="M16.1538 14.0641C16.1538 11.0902 18.5646 8.67944 21.5384 8.67944H29.6153C32.5892 8.67944 35 11.0902 35 14.0641C35 17.0379 32.5892 19.4487 29.6153 19.4487H21.5384C18.5646 19.4487 16.1538 17.0379 16.1538 14.0641ZM21.5384 11.3718C20.0515 11.3718 18.8461 12.5771 18.8461 14.0641C18.8461 15.551 20.0515 16.7564 21.5384 16.7564H29.6153C31.1023 16.7564 32.3077 15.551 32.3077 14.0641C32.3077 12.5771 31.1023 11.3718 29.6153 11.3718H21.5384Z" fill="#3075FF"/>
<path fill-rule="evenodd" clip-rule="evenodd" d="M0 1.5H31.4103V6.88461H28.7179V4.19231H2.69231V15.859H14.8077V18.5513H0V1.5Z" fill="#D9DBE0"/>
<path fill-rule="evenodd" clip-rule="evenodd" d="M4.93604 13.1667V6.43591H6.73091V13.1667H4.93604Z" fill="#8D9299"/>
</g>
<defs>
<clipPath id="clip0_60_2544">
<rect width="35" height="19" fill="white" transform="translate(0 0.5)"/>
</clipPath>
</defs>
</svg>
