<svg width="14" height="14" viewBox="0 0 14 14" fill="none" xmlns="http://www.w3.org/2000/svg">
<path fill-rule="evenodd" clip-rule="evenodd" d="M7 1.2C3.79675 1.2 1.2 3.79675 1.2 7C1.2 10.2033 3.79675 12.8 7 12.8C10.2033 12.8 12.8 10.2033 12.8 7C12.8 3.79675 10.2033 1.2 7 1.2ZM0 7C0 3.13401 3.13401 0 7 0C10.866 0 14 3.13401 14 7C14 10.866 10.866 14 7 14C3.13401 14 0 10.866 0 7Z" fill="#FF3440"/>
<path fill-rule="evenodd" clip-rule="evenodd" d="M6.9999 4C7.33127 4 7.5999 4.26863 7.5999 4.6V7.6C7.5999 7.93137 7.33127 8.2 6.9999 8.2C6.66853 8.2 6.3999 7.93137 6.3999 7.6V4.6C6.3999 4.26863 6.66853 4 6.9999 4Z" fill="#FF3440"/>
<path fill-rule="evenodd" clip-rule="evenodd" d="M6.9999 8.80005C7.33127 8.80005 7.5999 9.06868 7.5999 9.40005V9.44005C7.5999 9.77142 7.33127 10.04 6.9999 10.04C6.66853 10.04 6.3999 9.77142 6.3999 9.44005V9.40005C6.3999 9.06868 6.66853 8.80005 6.9999 8.80005Z" fill="#FF3440"/>
</svg>
