<svg width="30" height="16" viewBox="0 0 30 16" fill="none" xmlns="http://www.w3.org/2000/svg">
<path fill-rule="evenodd" clip-rule="evenodd" d="M8.14286 0C3.64568 0 0 3.58172 0 8C0 12.4183 3.64568 16 8.14286 16H21.8571C26.3543 16 30 12.4183 30 8C30 3.58172 26.3543 0 21.8571 0H8.14286Z" fill="#3075FF"/>
<path d="M11.5716 7.99988C11.5716 8.93005 10.8041 9.68409 9.85735 9.68409C8.91058 9.68409 8.14307 8.93005 8.14307 7.99988C8.14307 7.06972 8.91058 6.31567 9.85735 6.31567C10.8041 6.31567 11.5716 7.06972 11.5716 7.99988Z" fill="white"/>
<path d="M21.8573 7.99988C21.8573 8.93005 21.0898 9.68409 20.143 9.68409C19.1962 9.68409 18.4287 8.93005 18.4287 7.99988C18.4287 7.06972 19.1962 6.31567 20.143 6.31567C21.0898 6.31567 21.8573 7.06972 21.8573 7.99988Z" fill="white"/>
<path d="M16.7142 7.99988C16.7142 8.93005 15.9467 9.68409 14.9999 9.68409C14.0532 9.68409 13.2856 8.93005 13.2856 7.99988C13.2856 7.06972 14.0532 6.31567 14.9999 6.31567C15.9467 6.31567 16.7142 7.06972 16.7142 7.99988Z" fill="white"/>
</svg>
