<svg width="22" height="22" viewBox="0 0 22 22" fill="none" xmlns="http://www.w3.org/2000/svg">
<path d="M6.19848 5.06686C5.88611 4.75449 5.37966 4.75449 5.06729 5.06686C4.75492 5.37923 4.75492 5.88568 5.06729 6.19805L9.83419 10.965L5.06729 15.7319C4.75492 16.0442 4.75492 16.5507 5.06729 16.8631C5.37966 17.1754 5.88611 17.1754 6.19848 16.8631L10.9654 12.0961L15.6251 16.7559C15.9375 17.0682 16.4439 17.0682 16.7563 16.7559C17.0687 16.4435 17.0687 15.937 16.7563 15.6247L12.0966 10.965L16.7563 6.30524C17.0687 5.99287 17.0687 5.48642 16.7563 5.17405C16.4439 4.86168 15.9375 4.86168 15.6251 5.17405L10.9654 9.83376L6.19848 5.06686Z" fill="#8D9299"/>
</svg>
