<svg width="26" height="26" viewBox="0 0 26 26" fill="none" xmlns="http://www.w3.org/2000/svg">
<path fill-rule="evenodd" clip-rule="evenodd" d="M12.35 3.575C7.5037 3.575 3.575 7.5037 3.575 12.35C3.575 17.1963 7.5037 21.125 12.35 21.125C17.1963 21.125 21.125 17.1963 21.125 12.35C21.125 7.5037 17.1963 3.575 12.35 3.575ZM1.625 12.35C1.625 6.42675 6.42675 1.625 12.35 1.625C18.2733 1.625 23.075 6.42675 23.075 12.35C23.075 18.2733 18.2733 23.075 12.35 23.075C6.42675 23.075 1.625 18.2733 1.625 12.35Z" fill="#8D9299"/>
<path fill-rule="evenodd" clip-rule="evenodd" d="M11.375 6.5C11.375 5.96152 11.8115 5.525 12.35 5.525C16.1193 5.525 19.175 8.58066 19.175 12.35C19.175 12.8885 18.7385 13.325 18.2 13.325C17.6615 13.325 17.225 12.8885 17.225 12.35C17.225 9.65761 15.0424 7.475 12.35 7.475C11.8115 7.475 11.375 7.03848 11.375 6.5Z" fill="#8D9299"/>
<path fill-rule="evenodd" clip-rule="evenodd" d="M18.8106 18.8106C19.1913 18.4298 19.8087 18.4298 20.1894 18.8106L24.0894 22.7106C24.4702 23.0913 24.4702 23.7087 24.0894 24.0894C23.7087 24.4702 23.0913 24.4702 22.7106 24.0894L18.8106 20.1894C18.4298 19.8087 18.4298 19.1913 18.8106 18.8106Z" fill="#8D9299"/>
</svg>
