<svg width="22" height="22" viewBox="0 0 22 22" fill="none" xmlns="http://www.w3.org/2000/svg">
<path fill-rule="evenodd" clip-rule="evenodd" d="M1.8125 3.65C1.8125 2.63518 2.63518 1.8125 3.65 1.8125H18.35C19.3648 1.8125 20.1875 2.63518 20.1875 3.65V18.35C20.1875 19.3648 19.3648 20.1875 18.35 20.1875H3.65C2.63518 20.1875 1.8125 19.3648 1.8125 18.35V3.65ZM3.65 3.3875C3.50503 3.3875 3.3875 3.50503 3.3875 3.65V18.35C3.3875 18.495 3.50503 18.6125 3.65 18.6125H18.35C18.495 18.6125 18.6125 18.495 18.6125 18.35V3.65C18.6125 3.50503 18.495 3.3875 18.35 3.3875H3.65Z" fill="#8D9299"/>
<path fill-rule="evenodd" clip-rule="evenodd" d="M1.8125 7.85C1.8125 7.41508 2.16508 7.0625 2.6 7.0625H19.4C19.8349 7.0625 20.1875 7.41508 20.1875 7.85C20.1875 8.28492 19.8349 8.6375 19.4 8.6375H2.6C2.16508 8.6375 1.8125 8.28492 1.8125 7.85Z" fill="#8D9299"/>
<path fill-rule="evenodd" clip-rule="evenodd" d="M1.8125 14.15C1.8125 13.7151 2.16508 13.3625 2.6 13.3625H19.4C19.8349 13.3625 20.1875 13.7151 20.1875 14.15C20.1875 14.5849 19.8349 14.9375 19.4 14.9375H2.6C2.16508 14.9375 1.8125 14.5849 1.8125 14.15Z" fill="#8D9299"/>
</svg>
