<svg width="23" height="23" viewBox="0 0 23 23" fill="none" xmlns="http://www.w3.org/2000/svg">
<path fill-rule="evenodd" clip-rule="evenodd" d="M15.5251 2.86176C16.8272 2.93446 18.0576 3.53683 18.9654 4.51065C19.8075 5.41401 20.4936 6.53151 20.5337 8.01282C20.5548 8.79013 20.4512 9.44802 20.192 10.0599C19.9376 10.6605 19.5596 11.1528 19.136 11.6261C19.1262 11.637 19.1162 11.6477 19.1059 11.6582L16.7827 14.029C16.7772 14.0346 16.7717 14.0402 16.7661 14.0456C16.1832 14.6124 15.6504 14.9313 15.0104 15.153C14.3402 15.3851 13.6252 15.4584 12.9156 15.3721C12.2064 15.2859 11.5207 15.0427 10.9032 14.6646C10.2859 14.2866 9.74909 13.7816 9.32627 13.1857C9.01468 12.7465 9.11812 12.1379 9.55729 11.8263C9.99647 11.5147 10.6051 11.6181 10.9167 12.0573C11.1902 12.4429 11.5339 12.7643 11.9214 13.0016C12.3087 13.2387 12.7287 13.385 13.1509 13.4364C13.5728 13.4877 13.9887 13.4432 14.3721 13.3104C14.7275 13.1873 15.0153 13.0265 15.3985 12.6555L17.6974 10.3094C18.0551 9.90818 18.2662 9.60694 18.3964 9.29939C18.5236 8.99903 18.5997 8.62994 18.5844 8.06569C18.5616 7.22417 18.1905 6.53915 17.539 5.84031C16.9533 5.21194 16.186 4.8517 15.4164 4.80873C14.6533 4.76612 13.9346 5.0364 13.4028 5.55658L12.0764 6.90183C11.6983 7.28526 11.081 7.28961 10.6975 6.91154C10.3141 6.53347 10.3098 5.91615 10.6878 5.53271L12.02 4.18169L12.0306 4.17105C12.9599 3.25723 14.2189 2.78882 15.5251 2.86176Z" fill="#8D9299"/>
<path fill-rule="evenodd" clip-rule="evenodd" d="M7.98174 20.6447C6.67968 20.572 5.44923 19.9696 4.54143 18.9958C3.69932 18.0925 3.01328 16.975 2.97311 15.4936C2.95203 14.7163 3.05568 14.0584 3.31482 13.4466C3.5692 12.846 3.9472 12.3537 4.37086 11.8804C4.38063 11.8695 4.39066 11.8588 4.40091 11.8483L6.72412 9.47744C6.7296 9.47185 6.73515 9.46632 6.74076 9.46086C7.32359 8.89406 7.85646 8.57519 8.49646 8.35348C9.16659 8.12134 9.88162 8.04808 10.5912 8.13435C11.3004 8.22057 11.9861 8.46381 12.6036 8.84186C13.221 9.21982 13.7577 9.72485 14.1806 10.3208C14.4922 10.76 14.3887 11.3686 13.9495 11.6802C13.5104 11.9918 12.9018 11.8883 12.5902 11.4492C12.3166 11.0635 11.9729 10.7422 11.5854 10.5049C11.1981 10.2678 10.7782 10.1214 10.3559 10.0701C9.934 10.0188 9.51816 10.0632 9.13475 10.1961C8.77934 10.3192 8.49152 10.48 8.10833 10.851L5.80944 13.197C5.45175 13.5983 5.24067 13.8995 5.11041 14.2071C4.9832 14.5074 4.90709 14.8765 4.92239 15.4408C4.94522 16.2823 5.31634 16.9673 5.96779 17.6662C6.55356 18.2945 7.32086 18.6548 8.09046 18.6977C8.85354 18.7404 9.57228 18.4701 10.104 17.9499L11.4305 16.6046C11.8085 16.2212 12.4259 16.2169 12.8093 16.5949C13.1927 16.973 13.1971 17.5903 12.819 17.9738L11.4869 19.3248L11.4762 19.3354C10.5469 20.2492 9.28795 20.7176 7.98174 20.6447Z" fill="#8D9299"/>
</svg>
