<svg width="30" height="16" viewBox="0 0 30 16" fill="none" xmlns="http://www.w3.org/2000/svg">
<path d="M1.28564 8.00003C1.28564 4.27937 4.35569 1.26318 8.14279 1.26318H21.8571C25.6442 1.26318 28.7142 4.27937 28.7142 8.00003C28.7142 11.7207 25.6442 14.7369 21.8571 14.7369H8.14279C4.35569 14.7369 1.28564 11.7207 1.28564 8.00003Z"/>
<path fill-rule="evenodd" clip-rule="evenodd" d="M0 8C0 3.58172 3.64568 0 8.14286 0H21.8571C26.3543 0 30 3.58172 30 8C30 12.4183 26.3543 16 21.8571 16H8.14286C3.64568 16 0 12.4183 0 8ZM8.14286 2.52632C5.06584 2.52632 2.57143 4.97697 2.57143 8C2.57143 11.023 5.06584 13.4737 8.14286 13.4737H21.8571C24.9342 13.4737 27.4286 11.023 27.4286 8C27.4286 4.97697 24.9342 2.52632 21.8571 2.52632H8.14286Z" fill="#D9DBE0"/>
<ellipse cx="9.85735" cy="7.99988" rx="1.71429" ry="1.68421" fill="#121314"/>
<ellipse cx="20.143" cy="7.99988" rx="1.71429" ry="1.68421" fill="#121314"/>
<ellipse cx="14.9999" cy="7.99988" rx="1.71429" ry="1.68421" fill="#121314"/>
</svg>
