<svg width="22" height="22" viewBox="0 0 22 22" fill="none" xmlns="http://www.w3.org/2000/svg">
<path fill-rule="evenodd" clip-rule="evenodd" d="M1.66699 3.53332C1.66699 2.50239 2.50273 1.66666 3.53366 1.66666H18.467C19.4979 1.66666 20.3337 2.50239 20.3337 3.53332V18.4667C20.3337 19.4976 19.4979 20.3333 18.467 20.3333H3.53366C2.50273 20.3333 1.66699 19.4976 1.66699 18.4667V3.53332ZM3.53366 3.26666C3.38638 3.26666 3.26699 3.38605 3.26699 3.53332V18.4667C3.26699 18.6139 3.38638 18.7333 3.53366 18.7333H18.467C18.6143 18.7333 18.7337 18.6139 18.7337 18.4667V3.53332C18.7337 3.38605 18.6143 3.26666 18.467 3.26666H3.53366Z" fill="#8D9299"/>
<path fill-rule="evenodd" clip-rule="evenodd" d="M13.1333 3.26666C12.986 3.26666 12.8666 3.38605 12.8666 3.53332V4.86666C12.8666 5.30848 12.5084 5.66666 12.0666 5.66666C11.6248 5.66666 11.2666 5.30848 11.2666 4.86666V3.53332C11.2666 2.50239 12.1023 1.66666 13.1333 1.66666H14.4666C14.9084 1.66666 15.2666 2.02483 15.2666 2.46666C15.2666 2.90848 14.9084 3.26666 14.4666 3.26666H13.1333ZM16.3333 2.46666C16.3333 2.02483 16.6914 1.66666 17.1333 1.66666H18.4666C19.4975 1.66666 20.3333 2.50239 20.3333 3.53332V4.86666C20.3333 5.30848 19.9751 5.66666 19.5333 5.66666C19.0914 5.66666 18.7333 5.30848 18.7333 4.86666V3.53332C18.7333 3.38605 18.6139 3.26666 18.4666 3.26666H17.1333C16.6914 3.26666 16.3333 2.90848 16.3333 2.46666ZM12.0666 6.73332C12.5084 6.73332 12.8666 7.0915 12.8666 7.53332V8.86666C12.8666 9.01393 12.986 9.13332 13.1333 9.13332H14.4666C14.9084 9.13332 15.2666 9.49149 15.2666 9.93332C15.2666 10.3752 14.9084 10.7333 14.4666 10.7333H13.1333C12.1023 10.7333 11.2666 9.89759 11.2666 8.86666V7.53332C11.2666 7.0915 11.6248 6.73332 12.0666 6.73332ZM19.5333 6.73332C19.9751 6.73332 20.3333 7.0915 20.3333 7.53332V8.86666C20.3333 9.89759 19.4975 10.7333 18.4666 10.7333H17.1333C16.6914 10.7333 16.3333 10.3752 16.3333 9.93332C16.3333 9.49149 16.6914 9.13332 17.1333 9.13332H18.4666C18.6139 9.13332 18.7333 9.01393 18.7333 8.86666V7.53332C18.7333 7.0915 19.0914 6.73332 19.5333 6.73332Z" fill="#8D9299"/>
<path fill-rule="evenodd" clip-rule="evenodd" d="M5.38707 16.6892C5.07465 16.3767 5.07465 15.8702 5.38707 15.5578L8.28736 12.6575L6.42214 12.7015C5.98043 12.7119 5.61391 12.3623 5.6035 11.9206C5.59308 11.4789 5.9427 11.1124 6.38441 11.102L10.2468 11.0108C10.4654 11.0057 10.6766 11.0903 10.8313 11.2449C10.986 11.3996 11.0706 11.6108 11.0654 11.8295L10.9743 15.6918C10.9639 16.1335 10.5973 16.4832 10.1556 16.4727C9.71394 16.4623 9.36431 16.0958 9.37473 15.6541L9.41873 13.7889L6.51845 16.6892C6.20603 17.0016 5.69949 17.0016 5.38707 16.6892Z" fill="#8D9299"/>
</svg>
