<svg width="20" height="20" viewBox="0 0 20 20" fill="none" xmlns="http://www.w3.org/2000/svg">
<path fill-rule="evenodd" clip-rule="evenodd" d="M5.5 17.25C5.08579 17.25 4.75 16.9142 4.75 16.5L4.75 3.5C4.75 3.08579 5.08579 2.75 5.5 2.75C5.91421 2.75 6.25 3.08579 6.25 3.5L6.25 16.5C6.25 16.9142 5.91421 17.25 5.5 17.25Z" fill="#8D9299"/>
<path fill-rule="evenodd" clip-rule="evenodd" d="M14.5 17.25C14.0858 17.25 13.75 16.9142 13.75 16.5L13.75 3.5C13.75 3.08579 14.0858 2.75 14.5 2.75C14.9142 2.75 15.25 3.08579 15.25 3.5L15.25 16.5C15.25 16.9142 14.9142 17.25 14.5 17.25Z" fill="#8D9299"/>
<path fill-rule="evenodd" clip-rule="evenodd" d="M9.5 13.75C8.5335 13.75 7.75 12.9665 7.75 12L7.75 8C7.75 7.0335 8.5335 6.25 9.5 6.25L10.5 6.25C11.4665 6.25 12.25 7.0335 12.25 8L12.25 12C12.25 12.9665 11.4665 13.75 10.5 13.75L9.5 13.75ZM9.25 12C9.25 12.1381 9.36193 12.25 9.5 12.25L10.5 12.25C10.6381 12.25 10.75 12.1381 10.75 12L10.75 8C10.75 7.86193 10.6381 7.75 10.5 7.75L9.5 7.75C9.36193 7.75 9.25 7.86193 9.25 8L9.25 12Z" fill="#8D9299"/>
</svg>
