<svg width="20" height="20" viewBox="0 0 20 20" fill="none" xmlns="http://www.w3.org/2000/svg">
<path fill-rule="evenodd" clip-rule="evenodd" d="M7 17.25C6.58579 17.25 6.25 16.9142 6.25 16.5V13V12L6.25 7.5V6.5L6.25 3.5C6.25 3.08579 6.58579 2.75 7 2.75C7.41421 2.75 7.75 3.08579 7.75 3.5L7.75 4.76772C7.83165 4.75604 7.91512 4.75 8 4.75L12 4.75C12.9665 4.75 13.75 5.5335 13.75 6.5V7.5C13.75 8.4665 12.9665 9.25 12 9.25H8C7.91512 9.25 7.83165 9.24396 7.75 9.23228L7.75 10.2677C7.83165 10.256 7.91512 10.25 8 10.25H9.5C10.4665 10.25 11.25 11.0335 11.25 12V13C11.25 13.9665 10.4665 14.75 9.5 14.75H8C7.91512 14.75 7.83165 14.744 7.75 14.7323L7.75 16.5C7.75 16.9142 7.41421 17.25 7 17.25ZM7.75 13C7.75 13.1381 7.86193 13.25 8 13.25H9.5C9.63807 13.25 9.75 13.1381 9.75 13V12C9.75 11.8619 9.63807 11.75 9.5 11.75H8C7.86193 11.75 7.75 11.8619 7.75 12V13ZM7.75 7.5V6.5C7.75 6.36193 7.86193 6.25 8 6.25L12 6.25C12.1381 6.25 12.25 6.36193 12.25 6.5V7.5C12.25 7.63807 12.1381 7.75 12 7.75L8 7.75C7.86193 7.75 7.75 7.63807 7.75 7.5Z" fill="#8D9299"/>
</svg>
