<svg width="26" height="26" viewBox="0 0 26 26" fill="none" xmlns="http://www.w3.org/2000/svg">
<path fill-rule="evenodd" clip-rule="evenodd" d="M17.9257 6.17498C16.7431 6.17498 14.9498 6.69969 13.8584 8.72615C13.6884 9.04192 13.3587 9.23884 13 9.23884C12.6413 9.23884 12.3116 9.04192 12.1416 8.72615C11.0503 6.69985 9.25697 6.17547 8.07415 6.17547C6.85947 6.17547 5.70724 6.62561 4.86792 7.40747C4.08954 8.13257 3.575 9.44527 3.575 10.9035C3.575 13.4105 5.25312 17.785 13 21.0449C20.7471 17.7849 22.425 13.4103 22.425 10.9031C22.425 9.44489 21.9104 8.13215 21.132 7.40702C20.2927 6.62513 19.1404 6.17498 17.9257 6.17498ZM13 6.53343C14.5013 4.75728 16.4996 4.22498 17.9257 4.22498C19.6147 4.22498 21.2473 4.84937 22.4612 5.98019C23.736 7.16778 24.375 9.05833 24.375 10.9031C24.375 14.4536 21.9465 19.5179 13.367 23.0033C13.1317 23.0989 12.8683 23.0989 12.633 23.0033C4.0537 19.518 1.625 14.4539 1.625 10.9035C1.625 9.05871 2.26394 7.1682 3.53876 5.98065C4.75265 4.84985 6.38516 4.22547 8.07415 4.22547C9.50007 4.22547 11.4985 4.75733 13 6.53343Z" fill="#8D9299"/>
</svg>
