<svg width="26" height="26" viewBox="0 0 26 26" fill="none" xmlns="http://www.w3.org/2000/svg">
<path fill-rule="evenodd" clip-rule="evenodd" d="M12.9998 11.375C12.1023 11.375 11.3748 12.1026 11.3748 13C11.3748 13.8975 12.1023 14.625 12.9998 14.625C13.8973 14.625 14.6248 13.8975 14.6248 13C14.6248 12.1026 13.8973 11.375 12.9998 11.375ZM9.4248 13C9.4248 11.0256 11.0254 9.42505 12.9998 9.42505C14.9742 9.42505 16.5748 11.0256 16.5748 13C16.5748 14.9745 14.9742 16.575 12.9998 16.575C11.0254 16.575 9.4248 14.9745 9.4248 13Z" fill="#8D9299"/>
<path d="M12.9965 24.6934C11.6731 24.6934 10.5502 23.8381 10.196 22.5618L10.0355 21.9939C9.96202 21.7266 9.76819 21.5061 9.5142 21.4059C9.26022 21.299 8.97281 21.319 8.72551 21.4527L8.20418 21.7533C7.05456 22.4015 5.65096 22.2144 4.71523 21.2789C3.7795 20.3435 3.59235 18.9469 4.24068 17.7977L4.54145 17.2698C4.68181 17.0292 4.69518 16.7419 4.58824 16.4813C4.4813 16.2207 4.26741 16.0336 4.00006 15.9601L3.42525 15.7998C2.15533 15.4456 1.2998 14.3231 1.2998 13.0001C1.2998 11.677 2.15533 10.5545 3.43194 10.2003L4.00675 10.04C4.2741 9.96647 4.48798 9.77269 4.59492 9.51878C4.70186 9.25819 4.68181 8.97755 4.54813 8.73032L4.24736 8.20913C3.59903 7.05984 3.78618 5.65665 4.72191 4.72118C5.65765 3.78571 7.05456 3.59862 8.20418 4.24677L8.7322 4.54745C8.97281 4.68777 9.26022 4.70113 9.52089 4.59422C9.78155 4.48731 9.9687 4.27349 10.0422 4.00622L10.2026 3.43157C10.5569 2.16201 11.6798 1.30005 13.0031 1.30005C14.3265 1.30005 15.4494 2.15533 15.8037 3.43157L15.9641 4.00622C16.0376 4.27349 16.2314 4.48731 16.4854 4.59422C16.7461 4.70113 17.0335 4.68109 17.2741 4.54745L17.8021 4.24677C18.9517 3.59862 20.3553 3.78571 21.2844 4.72118C22.2201 5.65665 22.4073 7.05316 21.7589 8.20245L21.4582 8.73032C21.3178 8.97087 21.3044 9.25819 21.4114 9.51878C21.5183 9.77938 21.7322 9.96647 21.9995 10.04L22.5744 10.2003C23.8443 10.5545 24.6998 11.677 24.6998 13.0001C24.6998 14.3231 23.8443 15.4456 22.5677 15.7998L21.9929 15.9601C21.7255 16.0336 21.5116 16.2274 21.4047 16.4813C21.2978 16.7352 21.3178 17.0226 21.4515 17.2698L21.7523 17.7977C22.4006 18.9469 22.2134 20.3501 21.2777 21.2789C20.342 22.2144 18.9451 22.4015 17.7954 21.7533L17.2674 21.4527C17.0268 21.319 16.7394 21.299 16.4787 21.4059C16.2181 21.5128 16.0309 21.7266 15.9574 21.9939L15.797 22.5685C15.4427 23.8448 14.3199 24.7001 12.9965 24.7001V24.6934ZM9.17333 19.3278C9.54762 19.3278 9.9286 19.4013 10.2895 19.5483C11.1183 19.8958 11.7332 20.5907 11.9738 21.4527L12.1343 22.0273C12.3013 22.642 12.8427 22.6888 13.0031 22.6888C13.1636 22.6888 13.6983 22.642 13.872 22.0273L14.0325 21.4527C14.2731 20.584 14.888 19.8891 15.7235 19.5416C16.5522 19.1942 17.4813 19.2543 18.2633 19.6953L18.7913 19.996C19.3394 20.3034 19.7538 19.9626 19.8674 19.849C19.981 19.7354 20.3286 19.3211 20.0145 18.7732L19.7137 18.2453C19.2726 17.4636 19.2124 16.5348 19.56 15.7062C19.9075 14.871 20.6026 14.2562 21.4715 14.0224L22.0463 13.862C22.6612 13.695 22.708 13.1537 22.708 12.9934C22.708 12.833 22.6612 12.2985 22.0463 12.1247L21.4715 11.9644C20.6026 11.7238 19.9075 11.1091 19.5666 10.2805C19.2191 9.45196 19.2792 8.52318 19.7204 7.7414L20.0211 7.21353C20.3353 6.66561 19.9877 6.25133 19.8741 6.13774C19.7605 6.02415 19.3461 5.67669 18.798 5.99074L18.27 6.29143C17.488 6.73911 16.5589 6.79257 15.7301 6.44511C14.8947 6.09765 14.2798 5.40273 14.0458 4.54077L13.8854 3.96613C13.7183 3.35139 13.1769 3.30462 13.0165 3.30462C12.8561 3.30462 12.3214 3.35139 12.1476 3.96613L11.9872 4.54077C11.7466 5.40942 11.1317 6.10433 10.3029 6.44511C9.4741 6.79257 8.54505 6.73243 7.76304 6.29143L7.23502 5.99074C6.68695 5.67669 6.27256 6.02415 6.15893 6.13774C6.04531 6.25133 5.69775 6.66561 6.01189 7.21353L6.31266 7.73472C6.75379 8.52318 6.81394 9.44528 6.46639 10.2805C6.11883 11.1091 5.42371 11.7238 4.5615 11.9644L3.98669 12.1247C3.37178 12.2918 3.325 12.833 3.325 12.9934C3.325 13.1537 3.37178 13.6883 3.98669 13.862L4.5615 14.0224C5.4304 14.2629 6.12551 14.8777 6.46639 15.7129C6.81394 16.5415 6.75379 17.4702 6.31266 18.252L6.01189 18.7799C5.69775 19.3278 6.04531 19.7421 6.15893 19.8557C6.27256 19.9693 6.68695 20.3167 7.23502 20.0027L7.75636 19.702C8.20418 19.4481 8.69209 19.3211 9.1867 19.3211L9.17333 19.3278Z" fill="#8D9299"/>
</svg>
