<svg width="26" height="26" viewBox="0 0 26 26" fill="none" xmlns="http://www.w3.org/2000/svg">
<path fill-rule="evenodd" clip-rule="evenodd" d="M1.625 13C1.625 6.71776 6.71776 1.625 13 1.625C19.2822 1.625 24.375 6.71776 24.375 13C24.375 19.2822 19.2822 24.375 13 24.375C6.71776 24.375 1.625 19.2822 1.625 13ZM17.668 11.0006C17.9997 10.5765 17.9248 9.9637 17.5006 9.63198C17.0765 9.30026 16.4637 9.3752 16.132 9.79937L12.2278 14.7915L9.78157 12.4001C9.39651 12.0237 8.77922 12.0307 8.4028 12.4158C8.02638 12.8008 8.03338 13.4181 8.41843 13.7945L11.6434 16.9472C11.8417 17.141 12.1131 17.2413 12.3898 17.2228C12.6665 17.2044 12.9222 17.0691 13.093 16.8506L17.668 11.0006Z" fill="#8D9299"/>
</svg>
