<svg width="26" height="26" viewBox="0 0 26 26" fill="none" xmlns="http://www.w3.org/2000/svg">
<path fill-rule="evenodd" clip-rule="evenodd" d="M14.4346 5.02184C13.5988 4.34272 12.4012 4.34272 11.5654 5.02184L4.4154 10.8312C3.88371 11.2632 3.575 11.9118 3.575 12.5969V20.15C3.575 21.4064 4.59355 22.425 5.85 22.425H8.775V16.25C8.775 13.9166 10.6666 12.025 13 12.025C15.3334 12.025 17.225 13.9166 17.225 16.25V22.425H20.15C21.4064 22.425 22.425 21.4064 22.425 20.15V12.5969C22.425 11.9118 22.1163 11.2632 21.5846 10.8312L14.4346 5.02184ZM15.275 22.425V16.25C15.275 14.9935 14.2564 13.975 13 13.975C11.7436 13.975 10.725 14.9935 10.725 16.25V22.425H15.275ZM10.3357 3.50842C11.888 2.24719 14.112 2.24719 15.6643 3.50842L22.8143 9.31779C23.8017 10.1201 24.375 11.3246 24.375 12.5969V20.15C24.375 22.4834 22.4834 24.375 20.15 24.375H5.85C3.5166 24.375 1.625 22.4834 1.625 20.15V12.5969C1.625 11.3246 2.19832 10.1201 3.18575 9.31779L10.3357 3.50842Z" fill="#8D9299"/>
</svg>
