<svg width="20" height="20" viewBox="0 0 20 20" fill="none" xmlns="http://www.w3.org/2000/svg">
<path fill-rule="evenodd" clip-rule="evenodd" d="M16.5 12.25C16.9142 12.25 17.25 11.9142 17.25 11.5C17.25 11.0858 16.9142 10.75 16.5 10.75L13.7323 10.75C13.744 10.6683 13.75 10.5849 13.75 10.5L13.75 9.5C13.75 8.5335 12.9665 7.75 12 7.75L8 7.75C7.0335 7.75 6.25 8.5335 6.25 9.5L6.25 10.5C6.25 10.5849 6.25604 10.6683 6.26772 10.75L3.5 10.75C3.08579 10.75 2.75 11.0858 2.75 11.5C2.75 11.9142 3.08579 12.25 3.5 12.25L8 12.25L12 12.25L16.5 12.25ZM8 10.75L12 10.75C12.1381 10.75 12.25 10.6381 12.25 10.5L12.25 9.5C12.25 9.36193 12.1381 9.25 12 9.25L8 9.25C7.86193 9.25 7.75 9.36193 7.75 9.5L7.75 10.5C7.75 10.6381 7.86193 10.75 8 10.75Z" fill="#8D9299"/>
</svg>
