<svg width="20" height="20" viewBox="0 0 20 20" fill="none" xmlns="http://www.w3.org/2000/svg">
<path fill-rule="evenodd" clip-rule="evenodd" d="M4 10C4 9.44772 4.44772 9 5 9L15 9C15.5523 9 16 9.44771 16 10C16 10.5523 15.5523 11 15 11L5 11C4.44772 11 4 10.5523 4 10Z" fill="#8D9299"/>
<path fill-rule="evenodd" clip-rule="evenodd" d="M2.25 5C2.25 4.30964 2.80964 3.75 3.5 3.75L16.5 3.75C17.1904 3.75 17.75 4.30964 17.75 5C17.75 5.69036 17.1904 6.25 16.5 6.25L3.5 6.25C2.80964 6.25 2.25 5.69036 2.25 5Z" fill="#8D9299"/>
<path fill-rule="evenodd" clip-rule="evenodd" d="M6.25 15C6.25 14.5858 6.58579 14.25 7 14.25L13 14.25C13.4142 14.25 13.75 14.5858 13.75 15C13.75 15.4142 13.4142 15.75 13 15.75L7 15.75C6.58579 15.75 6.25 15.4142 6.25 15Z" fill="#8D9299"/>
</svg>
