<svg width="26" height="26" viewBox="0 0 26 26" fill="none" xmlns="http://www.w3.org/2000/svg">
<path fill-rule="evenodd" clip-rule="evenodd" d="M2.2749 4.55002C2.2749 3.29358 3.29345 2.27502 4.5499 2.27502H21.4499C22.7064 2.27502 23.7249 3.29358 23.7249 4.55002V21.45C23.7249 22.7065 22.7064 23.725 21.4499 23.725H4.5499C3.29345 23.725 2.2749 22.7065 2.2749 21.45V4.55002ZM4.5499 4.22502C4.37041 4.22502 4.2249 4.37053 4.2249 4.55002V21.45C4.2249 21.6295 4.37041 21.775 4.5499 21.775H21.4499C21.6294 21.775 21.7749 21.6295 21.7749 21.45V4.55002C21.7749 4.37053 21.6294 4.22502 21.4499 4.22502H4.5499Z" fill="#8D9299"/>
<path fill-rule="evenodd" clip-rule="evenodd" d="M17.5006 9.63194C17.9248 9.96367 17.9997 10.5764 17.668 11.0006L13.093 16.8506C12.9222 17.069 12.6665 17.2044 12.3898 17.2228C12.1131 17.2412 11.8417 17.141 11.6434 16.9472L8.41843 13.7945C8.03338 13.4181 8.02638 12.8008 8.4028 12.4157C8.77922 12.0307 9.39651 12.0237 9.78157 12.4001L12.2278 14.7915L16.132 9.79933C16.4637 9.37517 17.0765 9.30022 17.5006 9.63194Z" fill="#8D9299"/>
</svg>
