<svg width="32" height="32" viewBox="0 0 32 32" fill="none" xmlns="http://www.w3.org/2000/svg">
<rect width="32" height="32" rx="10"/>
<path fill-rule="evenodd" clip-rule="evenodd" d="M6.8125 11.8C6.8125 9.04548 9.04548 6.8125 11.8 6.8125H20.2C22.9545 6.8125 25.1875 9.04548 25.1875 11.8V20.2C25.1875 22.9545 22.9545 25.1875 20.2 25.1875H11.8C9.04548 25.1875 6.8125 22.9545 6.8125 20.2V11.8ZM11.8 8.3875C9.91533 8.3875 8.3875 9.91533 8.3875 11.8V20.2C8.3875 22.0847 9.91533 23.6125 11.8 23.6125H20.2C22.0847 23.6125 23.6125 22.0847 23.6125 20.2V11.8C23.6125 9.91533 22.0847 8.3875 20.2 8.3875H11.8Z" fill="#8D9299"/>
<path fill-rule="evenodd" clip-rule="evenodd" d="M12.5874 11.5375C12.0075 11.5375 11.5374 12.0076 11.5374 12.5875C11.5374 13.1674 12.0075 13.6375 12.5874 13.6375C13.1673 13.6375 13.6374 13.1674 13.6374 12.5875C13.6374 12.0076 13.1673 11.5375 12.5874 11.5375ZM9.9624 12.5875C9.9624 11.1377 11.1377 9.96249 12.5874 9.96249C14.0371 9.96249 15.2124 11.1377 15.2124 12.5875C15.2124 14.0372 14.0371 15.2125 12.5874 15.2125C11.1377 15.2125 9.9624 14.0372 9.9624 12.5875Z" fill="#8D9299"/>
<path fill-rule="evenodd" clip-rule="evenodd" d="M21.2672 16.4948C20.7333 15.8275 19.7144 15.8402 19.1973 16.5205L16.999 19.4131C16.0957 20.6016 14.4355 20.9057 13.1697 20.1145L12.0116 19.3907C11.4933 19.0668 10.8201 19.1435 10.3879 19.5756L8.15666 21.8068L7.04297 20.6931L9.27419 18.4619C10.225 17.5112 11.7061 17.3425 12.8463 18.0551L14.0044 18.7789C14.5798 19.1385 15.3345 19.0003 15.745 18.4601L17.9434 15.5675C19.0809 14.0708 21.3226 14.0429 22.497 15.5109L25.0147 18.658L23.7849 19.6419L21.2672 16.4948Z" fill="#8D9299"/>
</svg>
