<svg width="26" height="26" viewBox="0 0 26 26" fill="none" xmlns="http://www.w3.org/2000/svg">
<path fill-rule="evenodd" clip-rule="evenodd" d="M21.1248 6.13016C21.1248 5.44038 20.4281 4.96871 19.7877 5.22489L16.5748 6.51005V15.5898L19.7877 16.875C20.4281 17.1312 21.1248 16.6595 21.1248 15.9697V6.13016ZM14.6248 15.2749V6.82494H9.0998C6.7664 6.82494 4.8748 8.71654 4.8748 11.0499C4.8748 13.3833 6.7664 15.2749 9.0998 15.2749H14.6248ZM11.5885 17.2249H8.96806L9.53157 20.3243C9.68958 21.1933 10.6143 21.6901 11.4261 21.3422C12.0465 21.0763 12.3822 20.3995 12.2185 19.7448L11.5885 17.2249ZM6.91371 16.8268L7.61303 20.6731C7.99511 22.7745 10.2311 23.9759 12.1943 23.1345C13.6944 22.4916 14.5061 20.8551 14.1103 19.2718L13.5986 17.2249H15.412L19.0635 18.6855C20.9848 19.4541 23.0748 18.0391 23.0748 15.9697V6.13016C23.0748 4.06082 20.9848 2.64583 19.0635 3.41436L15.412 4.87494H9.0998C5.68945 4.87494 2.9248 7.63958 2.9248 11.0499C2.9248 13.6906 4.58233 15.9441 6.91371 16.8268Z" fill="#8D9299"/>
</svg>
