<svg width="16" height="16" viewBox="0 0 16 16" fill="none" xmlns="http://www.w3.org/2000/svg">
<path fill-rule="evenodd" clip-rule="evenodd" d="M8 1.37143C4.33914 1.37143 1.37143 4.33914 1.37143 8C1.37143 11.6609 4.33914 14.6286 8 14.6286C11.6609 14.6286 14.6286 11.6609 14.6286 8C14.6286 4.33914 11.6609 1.37143 8 1.37143ZM0 8C0 3.58172 3.58172 0 8 0C12.4183 0 16 3.58172 16 8C16 12.4183 12.4183 16 8 16C3.58172 16 0 12.4183 0 8Z" fill="#8D9299"/>
<path fill-rule="evenodd" clip-rule="evenodd" d="M7.99968 4.57153C8.37839 4.57153 8.68539 4.87854 8.68539 5.25725V8.68582C8.68539 9.06453 8.37839 9.37153 7.99968 9.37153C7.62097 9.37153 7.31396 9.06453 7.31396 8.68582V5.25725C7.31396 4.87854 7.62097 4.57153 7.99968 4.57153Z" fill="#8D9299"/>
<path fill-rule="evenodd" clip-rule="evenodd" d="M7.99968 10.0571C8.37839 10.0571 8.68539 10.3641 8.68539 10.7428V10.7886C8.68539 11.1673 8.37839 11.4743 7.99968 11.4743C7.62097 11.4743 7.31396 11.1673 7.31396 10.7886V10.7428C7.31396 10.3641 7.62097 10.0571 7.99968 10.0571Z" fill="#8D9299"/>
</svg>
