<svg width="26" height="26" viewBox="0 0 26 26" fill="none" xmlns="http://www.w3.org/2000/svg">
<path fill-rule="evenodd" clip-rule="evenodd" d="M17.9831 4.87505C16.966 4.87505 16.1415 5.69959 16.1415 6.71671C16.1415 7.73384 16.966 8.55838 17.9831 8.55838C19.0003 8.55838 19.8248 7.73384 19.8248 6.71671C19.8248 5.69959 19.0003 4.87505 17.9831 4.87505ZM14.1915 6.71671C14.1915 4.62263 15.8891 2.92505 17.9831 2.92505C20.0772 2.92505 21.7748 4.62263 21.7748 6.71671C21.7748 8.81079 20.0772 10.5084 17.9831 10.5084C16.8943 10.5084 15.9126 10.0494 15.2211 9.3144L10.299 11.6684C10.4345 12.0584 10.5081 12.4773 10.5081 12.9134C10.5081 13.3495 10.4345 13.7684 10.299 14.1583L15.2211 16.5124C15.9126 15.7773 16.8943 15.3184 17.9831 15.3184C20.0772 15.3184 21.7748 17.016 21.7748 19.11C21.7748 21.2041 20.0772 22.9017 17.9831 22.9017C15.8891 22.9017 14.1915 21.2041 14.1915 19.11C14.1915 18.8073 14.227 18.5128 14.294 18.2305L9.18831 15.7887C8.52455 16.3598 7.66083 16.705 6.71647 16.705C4.62239 16.705 2.9248 15.0075 2.9248 12.9134C2.9248 10.8193 4.62239 9.12171 6.71647 9.12171C7.66083 9.12171 8.52455 9.46695 9.18831 10.0381L14.294 7.59625C14.227 7.31398 14.1915 7.01949 14.1915 6.71671ZM8.17873 11.7936C7.84211 11.3547 7.31234 11.0717 6.71647 11.0717C5.69935 11.0717 4.8748 11.8963 4.8748 12.9134C4.8748 13.9305 5.69935 14.755 6.71647 14.755C7.31234 14.755 7.84211 14.4721 8.17873 14.0331C8.18639 14.0225 8.19424 14.012 8.20228 14.0017C8.426 13.6968 8.55813 13.3205 8.55813 12.9134C8.55813 12.5062 8.426 12.1299 8.20228 11.825C8.19424 11.8147 8.18639 11.8043 8.17873 11.7936ZM17.9831 17.2684C16.966 17.2684 16.1415 18.0929 16.1415 19.11C16.1415 20.1272 16.966 20.9517 17.9831 20.9517C19.0003 20.9517 19.8248 20.1272 19.8248 19.11C19.8248 18.0929 19.0003 17.2684 17.9831 17.2684Z" fill="#8D9299"/>
</svg>
