<svg width="20" height="20" viewBox="0 0 20 20" fill="none" xmlns="http://www.w3.org/2000/svg">
<path fill-rule="evenodd" clip-rule="evenodd" d="M5.26772 10.75H3.5C3.08579 10.75 2.75 10.4142 2.75 10C2.75 9.58579 3.08579 9.25 3.5 9.25H5.26772C5.38903 8.40193 6.11838 7.75 7 7.75H13C13.8816 7.75 14.611 8.40193 14.7323 9.25H16.5C16.9142 9.25 17.25 9.58579 17.25 10C17.25 10.4142 16.9142 10.75 16.5 10.75H14.7323C14.611 11.5981 13.8816 12.25 13 12.25H7C6.11838 12.25 5.38903 11.5981 5.26772 10.75ZM13.25 10V9.5C13.25 9.36193 13.1381 9.25 13 9.25H7C6.86193 9.25 6.75 9.36193 6.75 9.5V10V10.5C6.75 10.6381 6.86193 10.75 7 10.75H13C13.1381 10.75 13.25 10.6381 13.25 10.5V10Z" fill="#8D9299"/>
</svg>
