<svg width="26" height="26" viewBox="0 0 26 26" fill="none" xmlns="http://www.w3.org/2000/svg">
<path d="M12.9999 4.2251C13.2866 4.2251 13.5444 4.34886 13.7228 4.54588L20.2213 11.6942C20.5836 12.0927 20.5542 12.7093 20.1558 13.0715C19.7573 13.4338 19.1407 13.4044 18.7785 13.006L13.9749 7.72203V20.8001C13.9749 21.3386 13.5384 21.7751 12.9999 21.7751C12.4614 21.7751 12.0249 21.3386 12.0249 20.8001V7.72205L7.22135 13.006C6.85913 13.4044 6.24249 13.4338 5.84405 13.0715C5.44561 12.7093 5.41625 12.0927 5.77847 11.6942L12.275 4.54804C12.4535 4.34977 12.7121 4.2251 12.9999 4.2251C12.9999 4.2251 12.9999 4.2251 12.9999 4.2251Z" fill="#8D9299"/>
</svg>
