<svg width="20" height="20" viewBox="0 0 20 20" fill="none" xmlns="http://www.w3.org/2000/svg">
<path fill-rule="evenodd" clip-rule="evenodd" d="M12 4.75H10.75V3.5C10.75 3.08579 10.4142 2.75 10 2.75C9.58579 2.75 9.25 3.08579 9.25 3.5V4.75H8C7.0335 4.75 6.25 5.5335 6.25 6.5V7.5C6.25 8.4665 7.0335 9.25 8 9.25H9.25V10.25H9C8.0335 10.25 7.25 11.0335 7.25 12V13C7.25 13.9665 8.0335 14.75 9 14.75H9.25V16.5C9.25 16.9142 9.58579 17.25 10 17.25C10.4142 17.25 10.75 16.9142 10.75 16.5V14.75H11C11.9665 14.75 12.75 13.9665 12.75 13V12C12.75 11.0335 11.9665 10.25 11 10.25H10.75V9.25H12C12.9665 9.25 13.75 8.4665 13.75 7.5V6.5C13.75 5.5335 12.9665 4.75 12 4.75ZM10 11.75H11C11.1381 11.75 11.25 11.8619 11.25 12V13C11.25 13.1381 11.1381 13.25 11 13.25H9C8.86193 13.25 8.75 13.1381 8.75 13V12C8.75 11.8619 8.86193 11.75 9 11.75H10ZM12 6.25C12.1381 6.25 12.25 6.36193 12.25 6.5V7.5C12.25 7.63807 12.1381 7.75 12 7.75H8C7.86193 7.75 7.75 7.63807 7.75 7.5V6.5C7.75 6.36193 7.86193 6.25 8 6.25H10H12Z" fill="#8D9299"/>
</svg>
