<svg width="22" height="22" viewBox="0 0 22 22" fill="none" xmlns="http://www.w3.org/2000/svg">
<path fill-rule="evenodd" clip-rule="evenodd" d="M1.66699 6.73332C1.66699 3.93508 3.93542 1.66666 6.73366 1.66666H15.267C18.0652 1.66666 20.3337 3.93508 20.3337 6.73332V15.2667C20.3337 18.0649 18.0652 20.3333 15.267 20.3333H6.73366C3.93542 20.3333 1.66699 18.0649 1.66699 15.2667V6.73332ZM6.73366 3.26666C4.81907 3.26666 3.26699 4.81874 3.26699 6.73332V15.2667C3.26699 17.1812 4.81907 18.7333 6.73366 18.7333H15.267C17.1816 18.7333 18.7337 17.1812 18.7337 15.2667V6.73332C18.7337 4.81874 17.1816 3.26666 15.267 3.26666H6.73366Z" fill="#8D9299"/>
<path fill-rule="evenodd" clip-rule="evenodd" d="M11.0002 7C11.442 7 11.8002 7.35817 11.8002 7.8V14.2C11.8002 14.6418 11.442 15 11.0002 15C10.5584 15 10.2002 14.6418 10.2002 14.2V7.8C10.2002 7.35817 10.5584 7 11.0002 7Z" fill="#8D9299"/>
<path fill-rule="evenodd" clip-rule="evenodd" d="M7 11C7 10.5582 7.35817 10.2 7.8 10.2L14.2 10.2C14.6418 10.2 15 10.5582 15 11C15 11.4418 14.6418 11.8 14.2 11.8L7.8 11.8C7.35817 11.8 7 11.4418 7 11Z" fill="#8D9299"/>
</svg>
