<svg width="20" height="20" viewBox="0 0 20 20" fill="none" xmlns="http://www.w3.org/2000/svg">
<path fill-rule="evenodd" clip-rule="evenodd" d="M2.75 5.5C2.75 5.08579 3.08579 4.75 3.5 4.75L16.5 4.75C16.9142 4.75 17.25 5.08579 17.25 5.5C17.25 5.91421 16.9142 6.25 16.5 6.25L3.5 6.25C3.08579 6.25 2.75 5.91421 2.75 5.5Z" fill="#8D9299"/>
<path fill-rule="evenodd" clip-rule="evenodd" d="M2.75 14.5C2.75 14.0858 3.08579 13.75 3.5 13.75L16.5 13.75C16.9142 13.75 17.25 14.0858 17.25 14.5C17.25 14.9142 16.9142 15.25 16.5 15.25L3.5 15.25C3.08579 15.25 2.75 14.9142 2.75 14.5Z" fill="#8D9299"/>
<path fill-rule="evenodd" clip-rule="evenodd" d="M6.25 9.5C6.25 8.5335 7.0335 7.75 8 7.75L12 7.75C12.9665 7.75 13.75 8.5335 13.75 9.5V10.5C13.75 11.4665 12.9665 12.25 12 12.25L8 12.25C7.0335 12.25 6.25 11.4665 6.25 10.5L6.25 9.5ZM8 9.25C7.86193 9.25 7.75 9.36193 7.75 9.5L7.75 10.5C7.75 10.6381 7.86193 10.75 8 10.75L12 10.75C12.1381 10.75 12.25 10.6381 12.25 10.5V9.5C12.25 9.36193 12.1381 9.25 12 9.25L8 9.25Z" fill="#8D9299"/>
</svg>
