<svg width="26" height="26" viewBox="0 0 26 26" fill="none" xmlns="http://www.w3.org/2000/svg">
<path d="M13.9751 5.2001C13.9751 4.66162 13.5386 4.2251 13.0001 4.2251C12.4616 4.2251 12.0251 4.66162 12.0251 5.2001V12.0251H5.2001C4.66162 12.0251 4.2251 12.4616 4.2251 13.0001C4.2251 13.5386 4.66162 13.9751 5.2001 13.9751H12.0251V20.8001C12.0251 21.3386 12.4616 21.7751 13.0001 21.7751C13.5386 21.7751 13.9751 21.3386 13.9751 20.8001V13.9751H20.8001C21.3386 13.9751 21.7751 13.5386 21.7751 13.0001C21.7751 12.4616 21.3386 12.0251 20.8001 12.0251H13.9751V5.2001Z" fill="#8D9299"/>
</svg>
