<svg width="26" height="26" viewBox="0 0 26 26" fill="none" xmlns="http://www.w3.org/2000/svg">
<path fill-rule="evenodd" clip-rule="evenodd" d="M13.0002 4.22498C13.5387 4.22498 13.9752 4.6615 13.9752 5.19998L13.9752 14.4939L17.5002 10.8587C17.8751 10.4722 18.4924 10.4627 18.8789 10.8375C19.2655 11.2124 19.275 11.8296 18.9002 12.2162L13.7002 17.5787C13.5165 17.7681 13.264 17.875 13.0002 17.875C12.7364 17.875 12.4839 17.7681 12.3002 17.5787L7.10024 12.2162C6.72538 11.8296 6.73488 11.2124 7.12145 10.8375C7.50803 10.4627 8.12529 10.4722 8.50015 10.8587L12.0252 14.4939L12.0252 5.19998C12.0252 4.6615 12.4617 4.22498 13.0002 4.22498Z" fill="#8D9299"/>
<path fill-rule="evenodd" clip-rule="evenodd" d="M4.51067 22.1395C4.32782 21.9566 4.2251 21.7086 4.2251 21.45L4.2251 18.8501C4.2251 18.3116 4.66162 17.8751 5.2001 17.8751C5.73858 17.8751 6.1751 18.3116 6.1751 18.8501L6.1751 20.475L19.8251 20.475L19.8251 18.8501C19.8251 18.3116 20.2616 17.8751 20.8001 17.8751C21.3386 17.8751 21.7751 18.3116 21.7751 18.8501L21.7751 21.45C21.7751 21.9885 21.3386 22.425 20.8001 22.425L5.2001 22.425C4.94151 22.425 4.69352 22.3223 4.51067 22.1395Z" fill="#8D9299"/>
</svg>
