<svg width="16" height="16" viewBox="0 0 16 16" fill="none" xmlns="http://www.w3.org/2000/svg">
<g clip-path="url(#clip0_55_1624)">
<rect width="16" height="16" fill="white"/>
<path fill-rule="evenodd" clip-rule="evenodd" d="M0 1.69697C0 0.759759 0.759759 0 1.69697 0H14.303C15.2402 0 16 0.759759 16 1.69697V14.303C16 15.2402 15.2402 16 14.303 16H1.69697C0.759759 16 0 15.2402 0 14.303V1.69697ZM1.69697 1.45455C1.56308 1.45455 1.45455 1.56308 1.45455 1.69697V14.303C1.45455 14.4369 1.56308 14.5455 1.69697 14.5455H14.303C14.4369 14.5455 14.5455 14.4369 14.5455 14.303V1.69697C14.5455 1.56308 14.4369 1.45455 14.303 1.45455H1.69697Z" fill="#8D9299"/>
</g>
<defs>
<clipPath id="clip0_55_1624">
<rect width="16" height="16" fill="white"/>
</clipPath>
</defs>
</svg>
