<svg xmlns="http://www.w3.org/2000/svg" width="200" height="175" viewBox="0 0 200 175" fill="none">
  <mask id="path-1-inside-1_42_4020" fill="white">
    <path fill-rule="evenodd" clip-rule="evenodd" d="M17.5981 1.49999C16.4434 -0.500014 13.5566 -0.500014 12.4019 1.49999L9.20868 7.03084C4.05575 7.43423 0 11.7435 0 17V165C0 170.523 4.47716 175 10 175H190C195.523 175 200 170.523 200 165V17C200 11.4771 195.523 6.99999 190 6.99999H20.7735L17.5981 1.49999Z"/>
  </mask>
  <path fill-rule="evenodd" clip-rule="evenodd" d="M17.5981 1.49999C16.4434 -0.500014 13.5566 -0.500014 12.4019 1.49999L9.20868 7.03084C4.05575 7.43423 0 11.7435 0 17V165C0 170.523 4.47716 175 10 175H190C195.523 175 200 170.523 200 165V17C200 11.4771 195.523 6.99999 190 6.99999H20.7735L17.5981 1.49999Z" fill="white"/>
  <path d="M12.4019 1.49999L13.2679 1.99999L12.4019 1.49999ZM17.5981 1.49999L18.4641 0.999986V0.999985L17.5981 1.49999ZM9.20868 7.03084L9.28673 8.02779L9.81151 7.98671L10.0747 7.53084L9.20868 7.03084ZM20.7735 6.99999L19.9075 7.49999L20.1962 7.99999H20.7735V6.99999ZM13.2679 1.99999C14.0377 0.666653 15.9622 0.666652 16.732 1.99999L18.4641 0.999985C16.9245 -1.66668 13.0755 -1.66668 11.5359 0.999986L13.2679 1.99999ZM10.0747 7.53084L13.2679 1.99999L11.5359 0.999986L8.34266 6.53084L10.0747 7.53084ZM1 17C1 12.2696 4.65012 8.39076 9.28673 8.02779L9.13064 6.03389C3.46139 6.4777 -1 11.2173 -1 17H1ZM1 165V17H-1V165H1ZM10 174C5.02944 174 1 169.971 1 165H-1C-1 171.075 3.92487 176 10 176V174ZM190 174H10V176H190V174ZM199 165C199 169.971 194.971 174 190 174V176C196.075 176 201 171.075 201 165H199ZM199 17V165H201V17H199ZM190 7.99999C194.971 7.99999 199 12.0294 199 17H201C201 10.9249 196.075 5.99999 190 5.99999V7.99999ZM20.7735 7.99999H190V5.99999H20.7735V7.99999ZM16.732 1.99999L19.9075 7.49999L21.6395 6.49999L18.4641 0.999986L16.732 1.99999Z" fill="#D9DBE0" mask="url(#path-1-inside-1_42_4020)"/>
</svg>