<svg width="245" height="32" viewBox="0 0 245 32" fill="none" xmlns="http://www.w3.org/2000/svg">
<path d="M92.3797 26.1834C91.3897 26.1834 90.588 25.3902 90.588 24.4105C90.588 20.068 87.016 16.5335 82.6271 16.5335C78.2385 16.5335 74.6663 20.068 74.6663 24.4105C74.6663 25.3902 73.8648 26.1834 72.8747 26.1834C71.8845 26.1834 71.083 25.3902 71.083 24.4105C71.083 18.1122 76.2618 12.9878 82.6271 12.9878C88.9924 12.9878 94.1715 18.1122 94.1715 24.4105C94.1715 25.3902 93.3698 26.1834 92.3797 26.1834Z" fill="#2E6FF2"/>
<path d="M119.935 26.1834C119.471 26.1834 119.007 26.0099 118.652 25.6647L108.781 16.0151C108.073 15.3227 108.073 14.1993 108.781 13.507C109.489 12.8147 110.637 12.8147 111.347 13.507L119.935 21.9026L128.523 13.507C129.231 12.8147 130.379 12.8147 131.089 13.507C131.797 14.1993 131.797 15.3227 131.089 16.0151L121.218 25.6647C120.863 26.0099 120.399 26.1834 119.935 26.1834Z" fill="#2E6FF2"/>
<path d="M101.352 26.1834C100.34 26.1834 99.5215 25.3904 99.5215 24.4109V14.4795C99.5215 13.5 100.34 12.707 101.352 12.707C102.363 12.707 103.182 13.5 103.182 14.4795V24.4109C103.182 25.3904 102.363 26.1834 101.352 26.1834Z" fill="#2E6FF2"/>
<path d="M101.494 10.0781C102.826 10.0781 103.906 8.99821 103.906 7.66611C103.906 6.33402 102.826 5.25415 101.494 5.25415C100.162 5.25415 99.082 6.33402 99.082 7.66611C99.082 8.99821 100.162 10.0781 101.494 10.0781Z" fill="#2E6FF2"/>
<path d="M134.113 26.1579C135.445 26.1579 136.525 25.078 136.525 23.7459C136.525 22.4139 135.445 21.334 134.113 21.334C132.781 21.334 131.701 22.4139 131.701 23.7459C131.701 25.078 132.781 26.1579 134.113 26.1579Z" fill="#2E6FF2"/>
<path d="M59.773 26.7459C58.8126 26.7459 57.8519 26.5591 56.9349 26.1858C55.0669 25.426 53.6053 23.9802 52.8192 22.1153C52.0334 20.2505 52.0182 18.1933 52.7776 16.3171C53.5332 14.4428 54.9739 12.9761 56.8306 12.1875C58.6872 11.399 60.7394 11.3837 62.6093 12.1456C64.4773 12.9057 65.9389 14.3514 66.725 16.2162C67.0932 17.0886 66.685 18.0943 65.8174 18.4619L56.9692 22.2163C57.3298 22.5495 57.7513 22.8183 58.2183 23.0087C59.2415 23.4259 60.3654 23.4162 61.381 22.9857C62.3207 22.5876 63.0781 21.8582 63.5109 20.9324C63.9115 20.0753 64.9291 19.7077 65.7834 20.1096C66.6377 20.5115 67.0041 21.5324 66.6035 22.3896C65.8119 24.081 64.4279 25.4145 62.7117 26.144C61.7664 26.5458 60.7697 26.7459 59.773 26.7459ZM58.1614 15.3457C57.1458 15.7781 56.3561 16.58 55.9403 17.6067C55.7503 18.0753 55.6497 18.5667 55.6364 19.0581L62.5732 16.1152C62.2125 15.7819 61.7892 15.5209 61.324 15.3228C60.7582 15.0828 59.5376 14.759 58.1614 15.3457Z" fill="#2E6FF2"/>
<path d="M46.7421 12.9622C45.7406 12.9622 44.93 13.7553 44.93 14.735C44.93 19.0775 41.3171 22.6119 36.8784 22.6119C32.4394 22.6119 28.8265 19.0775 28.8265 14.735C28.8265 13.7553 28.0159 12.9622 27.0144 12.9622C26.0131 12.9622 25.2022 13.7553 25.2022 14.735C25.2022 19.0775 21.5894 22.6119 17.1506 22.6119C12.7118 22.6119 9.09892 19.0775 9.09892 14.735C9.09892 13.7553 8.28822 12.9622 7.28675 12.9622C6.2853 12.9622 5.47461 13.7553 5.47461 14.735C5.47461 21.0333 10.7127 26.1578 17.1506 26.1578C21.2976 26.1578 24.9428 24.0304 27.0144 20.8355C29.0861 24.0304 32.7332 26.1578 36.8784 26.1578C43.3162 26.1578 48.5543 21.0333 48.5543 14.735C48.5543 13.7553 47.7435 12.9622 46.7421 12.9622Z" fill="#2E6FF2"/>
<path d="M155.53 20.9783C154.888 23.0666 153.06 24.4163 150.872 24.4163C147.835 24.4163 145.632 22.0105 145.632 18.6956C145.632 15.3806 147.835 12.9749 150.872 12.9749C153.041 12.9749 154.817 14.2771 155.509 16.3728L155.6 16.6472H157.453L157.305 16.136C156.444 13.1614 153.919 11.239 150.872 11.239C146.854 11.239 143.823 14.4446 143.823 18.6956C143.823 22.9465 146.885 26.1521 150.944 26.1521C153.966 26.1521 156.532 24.1619 157.33 21.2L157.467 20.696H155.616L155.53 20.9783Z" fill="#47494D"/>
<path d="M172.432 13.7014C171.347 12.3572 169.412 11.239 167.048 11.239C163.098 11.239 160.119 14.4446 160.119 18.6956C160.119 22.9465 163.098 26.1521 167.048 26.1521C169.412 26.1521 171.347 25.0339 172.432 23.6897V25.8162H174.241V11.5754H172.432V13.7014ZM167.12 24.4163C164.062 24.4163 161.928 22.0637 161.928 18.6956C161.928 15.3274 164.062 12.9749 167.12 12.9749C170.212 12.9749 172.456 15.3806 172.456 18.6956C172.456 22.0105 170.212 24.4163 167.12 24.4163Z" fill="#47494D"/>
<path d="M185.455 11.239C182.973 11.239 181.27 12.5378 180.335 13.7615V11.5754H178.526V25.8162H180.335V18.4075C180.335 15.843 182.432 12.9749 185.239 12.9749C187.822 12.9749 189.304 14.675 189.304 17.6394V25.8162H191.112V17.4714C191.112 13.802 188.786 11.239 185.455 11.239Z" fill="#47494D"/>
<path d="M200.217 23.3879L194.882 11.5754H192.897L199.383 25.8162H201.026L207.511 11.5754H205.551L200.217 23.3879Z" fill="#47494D"/>
<path d="M220.768 13.7014C219.683 12.3572 217.748 11.239 215.384 11.239C211.434 11.239 208.455 14.4446 208.455 18.6956C208.455 22.9465 211.434 26.1521 215.384 26.1521C217.748 26.1521 219.683 25.0339 220.768 23.6897V25.8162H222.577V11.5754H220.768V13.7014ZM215.456 24.4163C212.398 24.4163 210.264 22.0637 210.264 18.6956C210.264 15.3274 212.398 12.9749 215.456 12.9749C218.548 12.9749 220.792 15.3806 220.792 18.6956C220.792 22.0105 218.548 24.4163 215.456 24.4163Z" fill="#47494D"/>
<path d="M232.782 17.7703C228.547 17.2781 228.192 16.2024 228.192 15.1433C228.192 13.9138 229.956 12.9509 232.208 12.9509C234.562 12.9509 236.452 13.9226 236.514 15.1628L236.532 15.5432H238.336L238.32 15.1287C238.238 12.9109 235.642 11.239 232.28 11.239C228.809 11.239 226.384 12.884 226.384 15.2395C226.384 17.6448 228.15 18.9363 232.11 19.4285C236.093 19.9294 236.872 20.7185 236.872 21.9119C236.872 23.3767 235.022 24.4402 232.473 24.4402C229.539 24.4402 228.087 23.22 227.949 22.011L227.909 21.656H226.072L226.122 22.0999C226.346 24.1169 228.374 26.1521 232.4 26.1521C236.157 26.1521 238.682 24.429 238.682 21.864C238.682 19.5393 236.807 18.2385 232.782 17.7703Z" fill="#47494D"/>
</svg>
